<svg width="197" height="224" viewBox="0 0 197 224" fill="none" xmlns="http://www.w3.org/2000/svg">
<path d="M98.6 223.7C96.3 223.7 94.1 223.3 92 222.6C84.5 220 65.4 210.1 45.9 194.7C32.9 184.4 22.6 173.8 15.3 163.4C9.70003 155.3 5.90003 147.3 4.10003 139.6C0.200032 123.3 0.300031 103.5 0.500031 78.4001V78.2C0.600031 71 0.600032 63.6 0.600032 55.7C0.600032 55.5 0.600032 55.3 0.600032 55.1C0.500032 52.7 0.400031 47.6 5.30003 43.6C7.60003 41.7 10.5 40.4 14.8 39.5V20.7001L14.9 20.4001C16.3 13.3001 21.3 8.70005 30.2 6.30005C44.5 2.50005 68.5 0.300049 96.2 0.300049C124.3 0.300049 150.7 2.60005 166.8 6.60005C174.9 8.60005 179.1 11.8 181 17.5C181.6 19.4 182 21.4 182 23.6L182.1 39.6C188 40.8 192.7 42.8001 195.7 49.3001C196.9 51.9001 196.9 54.7 196.7 58.1C196.7 58.3 196.7 58.9 196.7 59V59.1C196.7 60.9 196.7 63.1001 196.6 65.6001V66.9001C196.5 77.8001 196.4 94.3 195.8 109.2C194.8 133.5 192.9 140.7 191.4 144.2C189.1 150.3 185.9 156.5 181.9 162.4C173.7 174.5 161.9 186.4 146.6 197.7C129.2 210.6 112.5 219 106.1 222.1C103.7 223.1 101.1 223.7 98.6 223.7Z" fill="#FBFFFF"/>
<path d="M193.2 57.9001C193.2 58.3001 193.2 58.8001 193.2 59.0001C193.2 61.1001 193.2 63.7001 193.1 66.8001C193 77.7001 192.9 94.2001 192.3 109C191.3 133 189.5 139.9 188.1 142.9C185.9 148.8 182.8 154.7 178.9 160.5C170.9 172.3 159.4 183.8 144.4 194.9C127.2 207.6 110.7 216 104.4 218.9C102.6 219.8 100.5 220.2 98.5001 220.2C96.6001 220.2 94.7001 219.9 93.0001 219.3C85.7001 216.8 67.1001 207.1 47.9001 191.9C38.0001 184 26.4001 173.4 17.9001 161.3C13.0001 154.2 9.10009 146.6 7.20009 138.6C3.40009 122.7 3.50009 103 3.70009 78.2001C3.80009 71.0001 3.80009 63.5001 3.80009 55.5001C3.80009 55.2001 3.80009 55.0001 3.80009 54.8001C3.80009 52.6001 3.70009 49.0001 7.30009 46.0001C9.50009 44.2001 12.8001 42.9001 18.0001 42.0001V21.1001C18.9001 16.8001 21.6001 12.1001 30.8001 9.60009C60.8001 1.50009 132.8 1.80009 165.7 9.80009C173.9 11.8001 176.4 14.9001 177.6 18.5001C178.1 20.1001 178.4 21.8001 178.4 23.5001L178.5 42.3001C185.6 43.4001 189.7 44.7001 192.4 50.6001C193.3 52.5001 193.3 54.9001 193.2 57.9001Z" fill="#E13F3B"/>
<path d="M98.6001 215.5C97.3001 215.5 95.9001 215.3 94.7001 214.8C79.5001 209.6 21.0001 175 12.0001 137.7C7.30007 117.9 8.90007 91.3001 8.70007 55.7001C8.70007 51.8001 7.50007 48.3001 23.1001 46.4001C57.1001 42.1001 137 40.9001 174 46.5001C183.2 47.9001 186.1 48.2001 188.1 52.6001C188.7 53.9001 188.4 57.6001 188.4 59.0001C188.2 76.4001 188.5 130.8 183.7 141.1C168.9 181.6 113.4 209.5 102.5 214.7C101.3 215.2 100 215.5 98.6001 215.5Z" fill="#1E4D81"/>
<path d="M174.2 25.7001V25.8001C173.7 41.2001 173.6 56.0001 173.4 70.4001C173 106 172.7 134.1 168 145.1C162.4 157.9 154.1 169.9 143.6 180.6C133.2 191.2 120.1 200.9 104.9 209.4C102.9 210.5 100.7 211.1 98.4001 211.1C96.1001 211.1 93.8 210.5 91.8 209.4C78.4 201.8 66.7 193.5 57.2 184.7C55.5 183.2 53.9001 181.6 52.4001 180.1C42.2001 169.8 34.4 158.5 29.3 146.6C25.2 138.3 24 121.4 23.6 99.5001C23.5 92.1001 23.4 84.1001 23.3 75.7001C23.2 60.4001 23 43.1001 22.3 25.8001V25.7001V25.6001C22.3 19.7001 26.5 14.7001 32.3 13.6001C54.3 9.70007 76.5 7.70007 98.3 7.70007C120.1 7.70007 142.3 9.70007 164.2 13.6001C170 14.8001 174.2 19.8001 174.2 25.7001Z" fill="#FBFFFF"/>
<path d="M170.9 25.7001C169.3 78.8001 171.2 129.1 165 143.8C154 168.9 133.3 189.7 103.3 206.5C101.8 207.3 100.1 207.8 98.4 207.8C96.7 207.8 95 207.4 93.5 206.5C78.1 197.7 65.5 188.4 55.5 178.5C45 168.1 37.3 157 32.3 145.3C28.5 137.8 27.4 122 26.9 101.5C26.4 80.0001 26.7 53.3001 25.6 25.8001C25.6 21.5001 28.6 17.9001 32.8 17.1001C74.8 9.60009 118.3 9.00009 163.5 17.1001C167.8 17.8001 170.9 21.5001 170.9 25.7001Z" fill="#E13F3B"/>
<path d="M41.2 27.3001C44.4 26.8001 46.6 27.9001 46.8 30.0001C47 31.4001 46.2 32.7001 44.8 33.3001C46.6 33.4001 47.9 34.6001 48.1 36.4001C48.4 38.7001 46.5 40.4001 43.3 40.9001C41.1 41.2001 38.8 41.6001 36.6 41.9001C35.9 37.4001 35.2 32.8001 34.4 28.3001C36.8 27.9001 39 27.6001 41.2 27.3001ZM38.9 33.2001C39.9 33.1001 40.8 32.9001 41.8 32.8001C42.8 32.7001 43.4 32.0001 43.3 31.1001C43.2 30.2001 42.4 29.8001 41.4 30.0001C40.4 30.1001 39.5 30.3001 38.5 30.4001C38.7 31.3001 38.8 32.2001 38.9 33.2001ZM39.8 38.7001C40.7 38.6001 41.7 38.4001 42.6 38.3001C43.9 38.1001 44.6 37.4001 44.5 36.5001C44.4 35.6001 43.5 35.1001 42.2 35.3001C41.2 35.4001 40.3 35.6001 39.3 35.7001C39.5 36.7001 39.6 37.7001 39.8 38.7001Z" fill="#FBFFFF"/>
<path d="M53.5001 37.0001C53.3001 37.9001 53.0001 38.8001 52.8001 39.6001C51.6001 39.7001 50.4001 39.9001 49.2001 40.0001C50.6001 35.2001 52.1001 30.4001 53.6001 25.6001C54.8001 25.5001 56.1001 25.3001 57.3001 25.2001C59.8001 29.6001 62.2001 33.9001 64.5001 38.3001C63.3001 38.4001 62.0001 38.5001 60.8001 38.6001C60.4001 37.8001 60.0001 37.0001 59.6001 36.2001C57.6001 36.6001 55.5001 36.8001 53.5001 37.0001ZM55.7001 29.0001C55.2001 30.8001 54.7001 32.5001 54.2001 34.3001C55.5001 34.1001 56.9001 34.0001 58.2001 33.9001C57.4001 32.2001 56.6001 30.6001 55.7001 29.0001Z" fill="#FBFFFF"/>
<path d="M71.8 34.0001C70.8 34.1001 69.9 34.1001 69 34.2001C69.1 35.5001 69.2 36.8001 69.3 38.1001C68.1 38.2001 67 38.3001 65.8 38.4001C65.4 33.8001 65 29.3001 64.6 24.7001C66.7 24.5001 68.8 24.4001 71 24.2001C74.8 23.9001 77 25.6001 77.2 28.6001C77.3 30.7001 76.5 32.3001 74.9 33.2001C76 34.7001 77 36.1001 78.1 37.6001C76.8 37.7001 75.4 37.8001 74.1 37.8001C73.4 36.5001 72.6 35.2001 71.8 34.0001ZM71.5 31.3001C73 31.2001 73.9 30.4001 73.8 28.9001C73.7 27.5001 72.8 26.8001 71.2 26.9001C70.3 27.0001 69.4 27.0001 68.5 27.1001C68.6 28.6001 68.7 30.0001 68.8 31.5001C69.7 31.4001 70.6 31.3001 71.5 31.3001Z" fill="#FBFFFF"/>
<path d="M91.9 25.4001C91.2 26.2001 90.5 27.0001 89.9 27.8001C88.9 26.7001 87.5 26.1001 86.3 26.1001C84 26.2001 82.4 28.0001 82.5 30.2001C82.6 32.5001 84.3 34.2001 86.5 34.1001C87.7 34.1001 89 33.4001 90 32.4001C90.7 33.1001 91.4 33.8001 92.1 34.5001C90.6 36.0001 88.5 37.1001 86.4 37.2001C82.3 37.3001 79 34.5001 78.8 30.4001C78.6 26.4001 81.7 23.3001 86.1 23.1001C88.2 23.2001 90.5 24.0001 91.9 25.4001Z" fill="#FBFFFF"/>
<path d="M97.2 25.9001C97.2 26.8001 97.2 27.7001 97.2 28.6001C99.4 28.6001 101.7 28.6001 103.9 28.6001C103.9 29.5001 103.9 30.4001 103.9 31.4001C101.7 31.4001 99.4 31.4001 97.2 31.4001C97.2 32.3001 97.2 33.2001 97.2 34.2001C99.7 34.2001 102.2 34.2001 104.8 34.2001C104.8 35.1001 104.8 36.0001 104.8 37.0001C101.1 37.0001 97.4 37.0001 93.8 37.0001C93.7 32.4001 93.7 27.8001 93.6 23.2001C97.3 23.1001 101.1 23.1001 104.8 23.2001C104.8 24.1001 104.8 25.0001 104.8 26.0001C102.2 25.9001 99.7 25.9001 97.2 25.9001Z" fill="#FBFFFF"/>
<path d="M116.5 34.3001C116.5 35.3001 116.4 36.3001 116.4 37.2001C113.3 37.1001 110.2 37.0001 107 36.9001C107.1 32.3001 107.2 27.7001 107.2 23.1001C108.4 23.1001 109.6 23.1001 110.8 23.2001C110.7 26.8001 110.6 30.4001 110.5 34.0001C112.6 34.2001 114.6 34.2001 116.5 34.3001Z" fill="#FBFFFF"/>
<path d="M132.7 31.3001C132.4 35.3001 128.9 38.1001 124.7 37.8001C120.5 37.5001 117.4 34.4001 117.6 30.4001C117.8 26.4001 121.2 23.6001 125.6 23.8001C129.9 24.1001 133 27.3001 132.7 31.3001ZM121.1 30.6001C121 32.9001 122.7 34.8001 124.8 34.9001C126.9 35.0001 128.8 33.4001 128.9 31.1001C129.1 28.8001 127.5 26.9001 125.3 26.8001C123.2 26.6001 121.2 28.2001 121.1 30.6001Z" fill="#FBFFFF"/>
<path d="M143.6 39.3001C141.8 36.3001 139.9 33.2001 138.1 30.2001C137.8 33.0001 137.6 35.8001 137.3 38.6001C136.2 38.5001 135.1 38.4001 134 38.3001C134.4 33.7001 134.8 29.2001 135.2 24.6001C136.3 24.7001 137.3 24.8001 138.4 24.9001C140.3 27.9001 142.2 31.0001 144.1 34.0001C144.4 31.2001 144.7 28.4001 145 25.6001C146.1 25.7001 147.2 25.8001 148.4 26.0001C147.9 30.6001 147.3 35.1001 146.8 39.7001C145.6 39.5001 144.6 39.4001 143.6 39.3001Z" fill="#FBFFFF"/>
<path d="M152.9 37.8001C152.5 38.6001 152 39.4001 151.6 40.2001C150.4 40.0001 149.2 39.9001 148 39.8001C150.5 35.5001 153.1 31.2001 155.8 26.9001C157 27.1001 158.3 27.2001 159.5 27.4001C160.8 32.2001 162.1 37.1001 163.3 41.9001C162.1 41.7001 160.8 41.5001 159.6 41.3001C159.4 40.4001 159.2 39.5001 159 38.6001C156.9 38.4001 154.9 38.1001 152.9 37.8001ZM157 30.5001C156.1 32.1001 155.2 33.7001 154.3 35.3001C155.6 35.5001 157 35.7001 158.3 35.9001C157.8 34.1001 157.4 32.3001 157 30.5001Z" fill="#FBFFFF"/>
<path d="M138.9 63.8C122.2 63.7 108.6 77.1 108.5 93.7C108.4 110.3 121.8 124 138.4 124.1C155.1 124.2 168.7 110.8 168.8 94.2C168.9 77.6 155.5 63.9 138.9 63.8ZM156.1 71.7C165.4 81.2 166.3 89.6 166.3 89.6L161 86C159.8 82.2 155 75.2 155 75.2L156.1 71.7ZM153.3 76.3L159.4 86.6C158.7 91.9 155.3 95.9 155.3 95.9C150.7 94.4 142.3 94.9 142.3 94.9C141.9 90.9 136.1 84 136.1 84C137.1 79.1 141.3 74.3 141.3 74.3C147.8 74.2 153.3 76.3 153.3 76.3ZM138 97.4C135.7 99.3 133.2 98.1 133.2 98.1L123 93.6C122.5 93.4 121.9 93.4 121.4 93.7C121.5 92.9 121.7 92 122.1 91.2C122.1 91.2 122.1 91.2 122.1 91.1C122.5 90.2 123.6 89.8 124.5 90.2L135.2 94.9C139.3 96.7 139.5 92.4 139.5 92.4C139.5 92.4 140.4 95.3 138 97.4ZM139.3 97.8C139.3 98 138.6 100.5 135.8 102.5C133.2 104.4 130.9 103.2 130.9 103.2C130.9 103.2 124 100.2 123.5 100C123 99.8 122.6 99.8 122.6 99.8C122.4 99.5 122.2 99.2 122 98.8C121.9 98.6 121.8 98.3 121.8 98C121.8 97.8 121.8 97.5 122 97.3C122.4 96.4 123.5 95.9 124.4 96.3L132.4 99.8C136.3 101.5 138.5 99.5 139.3 97.8ZM126.5 87.1C126.8 86.4 127.5 86 128.2 86C128.4 86 128.7 86.1 128.9 86.2C128.9 86.2 135.7 89.2 136.5 89.5C137.3 89.8 138 89.5 138 89.5C138.5 90.3 139.5 91.4 138.9 92.6C138.6 93.3 137.9 93.7 137.2 93.7C137 93.7 136.7 93.6 136.5 93.5L127.4 89.5C126.5 89.1 126.1 88 126.5 87.1ZM135.4 65.4L136.8 66.8H130.5L135.4 65.4ZM124.3 69.8C129.7 70.5 135 68 135 68L139.6 72.9C137.6 74.3 134.1 82.8 134.1 82.8C129.5 83.1 121.9 85.8 121.9 85.8L117.4 78.8C119.5 74.3 124.3 69.8 124.3 69.8ZM111.4 85.9L116.3 80.9C116.3 80.9 119.5 87.2 121.1 88.1C121.1 88.1 119.6 94 120.1 101.1C120.1 101.1 115.8 102.6 113.8 104.1C113.7 104.1 108.1 98.2 111.4 85.9ZM131.1 121.4C131.1 121.4 123.8 117.8 123.2 117.6L131.6 120.7L131.1 121.4ZM131.4 119.1L118.1 113.3C118.4 110.9 114.8 106.5 114.8 106.5L121.1 102.7C125.5 105.8 131.4 107.4 131.4 107.4L135.7 115.8L131.4 119.1ZM137.1 115.7C137.1 115.7 136.1 111.2 133.6 107.3C133.6 107.3 137.8 104.4 142.3 97.1L154.7 97.9L158 107C158 107 151.8 114.4 147.9 116.2C148 116.1 142.8 115.1 137.1 115.7ZM159.6 112.4C156.8 116.2 148.8 120.4 148.8 120.4C148.8 120.4 149.1 117.6 149.2 117.6C152 116.6 159.4 108.8 159.4 108.8L163.5 105.9C163.4 105.9 162.4 108.6 159.6 112.4Z" fill="#F9FFFA"/>
<path d="M115.2 172.3C109.7 165.2 102.7 165.3 100.5 165.5C100.5 165.4 100.5 165.3 100.5 165.1C100.5 163.9 99.5 162.9 98.3 162.9C97.1 162.9 96.1 163.9 96.1 165.1C96.1 165.2 96.1 165.2 96.1 165.3C93.1 164.9 86.4 165.1 82.2 172.2C78.4 178.5 80.4 187.3 80.4 187.3C80.4 187.3 80.5 187.3 80.7 187.3L89.6 180.4C89.7 172.6 94.2 168.3 96.5 166.5V165.6H98V166.9C97.9 167 97.8 167 97.7 167.1C95.8 168.4 90.8 172.6 90.8 180.4C90.8 181.7 91 182.9 91.4 184.1C93.2 189.6 98.5 193.4 98.5 193.4C98.5 193.4 103.6 189.2 105.1 183.6C105.3 182.7 105.5 181.7 105.5 180.7C105.5 172.4 101 168.4 99.2 167.2L99 167.1V165.7H99.6L100.3 165.8H100.4V166.6C101.4 167.3 102.6 168.6 103.8 170.3C106.9 173 112.3 178.3 113.6 183.6L105.9 174.9C106.3 176.3 106.6 177.8 106.6 179.6C107.9 180.9 111.7 184.6 111.8 184.8L106.5 182C106.4 182.8 106.3 183.5 106 184.3C110.9 187.3 116.7 186.7 116.7 186.7C116.7 186.7 119.7 178.1 115.2 172.3ZM84.7 180.6L83.1 180.7V179.1H84.7V180.6ZM87.1 178.3L85.8 176.7H83.1L87.2 174.7L87.1 178.3ZM89.3 174.1L88.2 172.9L85.3 173L89.5 171.3L89.3 174.1ZM91.3 170.9L91.1 169.9L89 169.6L92.4 169L91.3 170.9ZM94 168.3L93.8 167.2L91.2 166.9L95 166.4L94 168.3ZM97.6 190.1C97 189.7 96.2 188.9 95.4 187.7H97.6V190.1ZM97.6 186.5H94.8C94.6 186 94.3 185.4 94.1 184.7H97.6V186.5ZM97.6 183.5H93.9C93.8 182.9 93.7 182.2 93.6 181.5H97.6V183.5ZM97.6 180.4H93.5C93.5 180.2 93.5 180 93.5 179.7C93.5 179.2 93.5 178.6 93.6 178.1H97.6V180.4ZM97.6 177H93.7C93.8 176.3 93.9 175.6 94.1 175H97.6V177ZM97.6 173.9H94.5C94.7 173.2 95 172.6 95.3 172.1H97.6V173.9ZM97.6 170.9H96C96.6 170.1 97.1 169.6 97.6 169.2V170.9ZM99 190.2V187.6H101.2C100.4 188.9 99.6 189.8 99 190.2ZM101.8 186.5H99V184.7H102.5C102.3 185.3 102.1 185.9 101.8 186.5ZM102.9 183.5H99V181.5H103.2C103.1 182.2 103 182.9 102.9 183.5ZM103.3 179.7C103.3 179.9 103.3 180.1 103.3 180.4H99V178.2H103.2C103.3 178.7 103.3 179.2 103.3 179.7ZM103.1 177H99V175H102.6C102.8 175.7 103 176.3 103.1 177ZM101.4 172.1C101.7 172.6 102 173.3 102.3 173.9H99V172.1H101.4ZM100.7 170.9H99V169.2C99.5 169.5 100.1 170.1 100.7 170.9ZM115 182.7C112.6 173.6 104.6 167.9 104.6 167.9C115.4 172.2 115 182.7 115 182.7Z" fill="#F9FFFA"/>
<path d="M82.8 161.2V154.9H84.4V161.2H82.8Z" fill="#FBFFFF"/>
<path d="M89.9001 159.9V161.2H85.6001V154.9H87.2001V159.8H89.9001V159.9Z" fill="#FBFFFF"/>
<path d="M94.9001 161.2V158.8H92.3001V161.2H90.7001V154.9H92.3001V157.5H94.9001V154.9H96.5001V161.2H94.9001Z" fill="#FBFFFF"/>
<path d="M99.3001 156.2V157.4H102.3V158.7H99.3001V160H102.7V161.3H97.7001V155H102.6V156.3H99.3001V156.2ZM100.6 154.4H99.4001L100.4 152.9L101.8 153.4L100.6 154.4Z" fill="#FBFFFF"/>
<path d="M109.4 158.6C109.4 160.3 108.3 161.3 106.5 161.3C104.7 161.3 103.6 160.3 103.6 158.6V155H105.2V158.6C105.2 159.5 105.7 160 106.5 160C107.3 160 107.8 159.5 107.8 158.6V155H109.4V158.6V158.6Z" fill="#FBFFFF"/>
<path d="M115.4 155.6L114.8 156.8C114.1 156.4 113.3 156.1 112.8 156.1C112.4 156.1 112.1 156.3 112.1 156.6C112.1 157.7 115.4 157.1 115.4 159.3C115.4 160.6 114.3 161.2 112.9 161.2C111.9 161.2 110.8 160.8 110 160.2L110.6 159C111.2 159.6 112.2 159.9 112.9 159.9C113.4 159.9 113.7 159.7 113.7 159.4C113.7 158.3 110.4 159 110.4 156.7C110.4 155.5 111.4 154.8 112.9 154.8C113.9 154.9 114.8 155.1 115.4 155.6Z" fill="#FBFFFF"/>
<path d="M111 105.5L105.8 110.3C103.7 112.2 102.1 113.1 100.7 113.1C98.9 113.1 96.7 111.8 94.1 109.2C91.5 106.6 89.9 100.4 90 93.6C90.2 86.3 92.3 79.8 95.5 76.9C97.5 75.1 99.5 74.2 101.4 74.2C104 74.2 106 75.8 106.2 76L112.8 82.3L112.6 73.1C112.4 63.5 111.5 59.8 109.2 57.6L107.3 51.5H91L87.9 55.3L77.8 54.1L58.5 61.6L46.9 71.6L34.3 88.3L29.3 91.2L23.5 99.7L39.3 139.8C38.7 140 38.4 140.2 38.4 140.3C38.5 140.8 38.5 163.2 38.8 163.2C39.1 163.2 54.1 180.9 54.1 180.9C54.1 180.9 54.6 180.6 55.3 180.2L57.2 184.9L78.5 129.9L93.2 123.6C98.7 126.7 103.2 128.2 103.5 128.4L105.3 129L114.2 123.3L111 105.5Z" fill="#FBFFFF"/>
<path d="M104.8 124.6L109.9 121.3L108.5 113.1C103.7 117.6 98.7 119.3 91.4 111.9C84 104.5 84.4 81.8001 92.9 74.0001C101.4 66.2001 108.8 73.0001 108.8 73.0001C108.6 63.2001 108.2 63.0001 107 62.0001C105.9 61.0001 96.4 60.3001 96.4 60.3001L101.4 55.2001H92.8L89.1 59.8001H87.7L89.1 69.4001L79.7 81.6001L84.7 68.1001L83.6 60.3001L84.3 58.6001L78.4 57.9001L60.6 64.8001L49.7 74.2001L36.9 91.2001L31.9 94.1001L26.9 101.5C27.3 122 28.5 137.8 32.3 145.3C35.3 152.2 39.2 158.9 44 165.4C45.2 164.4 47.4 163.6 50 163.6C54 163.6 58 165.6 59.8 167.3L75.5 126.9L90.1 120.7C82.7 113.3 83.7 112.1 83.7 112.1C92.5 120.4 104.8 124.6 104.8 124.6ZM57.8 81.2001C58.4 81.7001 58.2 83.0001 57.3 84.1001C56.4 85.3001 55.2 85.8001 54.6 85.4001C54 84.9001 54.2 83.6001 55.1 82.5001C56 81.3001 57.2 80.7001 57.8 81.2001ZM53.4 77.7001C54.5 76.3001 56 75.6001 56.7 76.1001C57.4 76.7001 57.1 78.3001 56.1 79.7001C55 81.1001 53.5 81.8001 52.8 81.3001C52 80.7001 52.3 79.1001 53.4 77.7001ZM29.2 100.3L46.6 85.6001L36.1 98.9001L53 99.4001L35.3 104L29.2 100.3ZM43.6 147.8C43.4 146.3 45.6 144.7 48.6 144.2C51.6 143.7 54.3 144.5 54.5 146.1C54.7 147.6 52.5 149.2 49.5 149.7C46.5 150.1 43.8 149.3 43.6 147.8ZM52.9 159.1C49 159.6 45.7 158.8 45.5 157.3C45.3 155.8 48.3 154.1 52.2 153.6C56.1 153.1 59.4 153.9 59.6 155.4C59.8 156.9 56.8 158.6 52.9 159.1ZM59 87.0001C58.3 87.9001 57.4 88.3001 56.9 88.0001C56.4 87.6001 56.6 86.6001 57.3 85.7001C58 84.8001 58.9 84.4001 59.4 84.7001C59.9 85.1001 59.7 86.1001 59 87.0001ZM80 64.8001L82.8 67.8001L73.7 71.2001L80 64.8001ZM71.5 99.9001C73 99.8001 74.3 101.4 74.4 103.4C74.5 105.4 73.3 107 71.8 107.1C70.3 107.2 69 105.6 68.9 103.6C68.8 101.6 70 100 71.5 99.9001ZM66.7 109.7C65.5 110.3 63.6 108.9 62.5 106.6C61.4 104.3 61.4 102 62.6 101.4C63.8 100.8 65.7 102.2 66.8 104.5C67.9 106.8 67.9 109.1 66.7 109.7ZM76.9 117.2C76.3 118.4 74 118.4 71.7 117.3C69.4 116.2 68 114.3 68.6 113.1C69.2 111.9 71.5 111.9 73.8 113C76.1 114.1 77.5 116 76.9 117.2ZM48.9 171.5C50.9 173.9 53.1 176.2 55.4 178.5L58.2 171.2C56.7 171.8 54.6 172.1 51.9 172.1C51 172.1 49.9 171.9 48.9 171.5Z" fill="#1E4D81"/>
</svg>
