<?xml version="1.0" encoding="utf-8"?>
<!-- Generator: Adobe Illustrator 23.0.3, SVG Export Plug-In . SVG Version: 6.00 Build 0)  -->
<svg version="1.1" id="Layer_1" xmlns="http://www.w3.org/2000/svg" xmlns:xlink="http://www.w3.org/1999/xlink" x="0px" y="0px"
	 viewBox="0 0 386 358.7" style="enable-background:new 0 0 386 358.7;" xml:space="preserve">
<style type="text/css">
	.st0{fill:#111145;}
	.st1{fill:#2A3591;}
	.st2{fill:#D82126;stroke:#FFFFFF;stroke-width:3;stroke-miterlimit:10;}
	.st3{fill:#FBFFFF;}
	.st4{fill:#FFFFFF;}
	.st5{fill:#C9C9C9;}
	.st6{clip-path:url(#SVGID_2_);fill:#2E3494;}
	.st7{fill:#FFFFFF;stroke:#FFFFFF;stroke-width:4;stroke-miterlimit:10;}
	.st8{fill:#2A3591;stroke:#FFFFFF;stroke-width:0.25;stroke-miterlimit:10;}
	.st9{fill:none;}
</style>
<g>
	<path class="st0" d="M354.8,205.6l-9-4.5l-11.3-2.1l-7.5,20.7C327.1,219.7,345.6,217.8,354.8,205.6z"/>
	<path class="st0" d="M32.6,207.2l10.7-4.5l11.3-2.1l7.2,20.6C61.8,221.2,41.7,219.3,32.6,207.2z"/>
	<path class="st1" d="M60.1,56.5c0,0,136-60.7,266.7,0c0,0,13.8,31.3,15.3,58.4l-7.6,84.9c0,0-26.4,100.2-139.1,144.2
		c0,0-110.4-37.6-140.9-143.3l-9.8-84C44.8,116.7,45.5,94.7,60.1,56.5z"/>
	<path class="st2" d="M71,66.9c0,0,125-56,245,0c0,0,12.7,28.9,14.1,54l-6.9,78.4c0,0-24.3,92.5-127.8,133.2
		c0,0-101.5-34.7-129.5-132.3l-9-77.6C56.9,122.6,57.5,102.2,71,66.9z"/>
	<path class="st3" d="M134.7,48.3c1.1-2,5.3-1,7.6-1.4c0,0-7.6,24.9-9.9,53.6l-2.1,85.5c0,0,4.5,105.8,9.5,115.2l-8.3-5.7
		c0,0-9.3-81.5-7.9-117.5l2.1-77.2C125.6,100.7,130.7,55.6,134.7,48.3z"/>
	<path class="st3" d="M256.4,48.3c-1.1-2-5.3-1-7.6-1.4c0,0,7.6,24.9,9.9,53.6l2.1,85.5c0,0-4.5,105.8-9.5,115.2l8.3-5.7
		c0,0,9.3-81.5,7.9-117.5l-2.1-77.2C265.5,100.7,260.4,55.6,256.4,48.3z"/>
	<polygon class="st4" points="191.1,41.1 197.8,41.1 198.6,332 192.6,332 	"/>
	<path class="st1" d="M32.6,207.2c0,0,160.7-56.9,322.2-1.6c0,0,10.9-32.4-1.6-87.1c0,0-137.3-54-320.7,2.2
		C32.6,120.7,21.7,153.8,32.6,207.2z"/>
	<ellipse class="st4" cx="194.9" cy="236.5" rx="43.2" ry="42.6"/>
	<ellipse class="st5" cx="194.9" cy="236.5" rx="38.9" ry="38.4"/>
	<g>
		<defs>
			<ellipse id="SVGID_1_" cx="194.9" cy="236.4" rx="38.9" ry="38.4"/>
		</defs>
		<clipPath id="SVGID_2_">
			<use xlink:href="#SVGID_1_"  style="overflow:visible;"/>
		</clipPath>
		<path class="st6" d="M158.1,222.2h5.6l5.4,14.1l-5.5,14.3h-5.5C158.1,250.6,150.7,235.3,158.1,222.2z"/>
		<path class="st6" d="M164.4,211.7l2.4,4.2l15.1-1.6l9.7-13.1l-3.9-5.6C187.7,195.7,172.8,196.6,164.4,211.7z"/>
		<path class="st6" d="M198.9,202.2l8.4,11.6l16.3,1.6l3.1-5c0,0-6.9-12.8-24.6-14.1L198.9,202.2z"/>
		<path class="st6" d="M221.1,235.9l5.7-13.7h7.1c0,0,5.1,16,0,28.4h-7.1L221.1,235.9z"/>
		<path class="st6" d="M164.4,262.3l2.8-5.8l15,1.3l9.4,12.2l-3.1,6.9C188.5,277,173.7,276,164.4,262.3z"/>
		<path class="st6" d="M202,276.5l-3.1-6.3l8.7-11.8l15.6-1.9l4.3,5.8C227.4,262.3,215.4,276.1,202,276.5z"/>
		<path class="st6" d="M178.9,236.4c0.1,0.1,8.2-14.7,8.2-14.7h16.7l8.2,14.7l-8.3,14.8H187L178.9,236.4z"/>
	</g>
	<g>
		<path class="st4" d="M64.6,173.4c-1.3,0.3-2.1,0.9-2.6,1.7c-0.5,0.8-0.6,1.9-0.3,3.2l9.7-2.6l0.8,2.9l-9.7,2.6
			c0.4,1.4,1,2.4,1.8,2.9c0.8,0.5,1.9,0.5,3.3,0.1l5.7-1.5l0.8,2.9l-5.9,1.6c-1.3,0.3-2.4,0.5-3.2,0.5c-0.8,0-1.6-0.2-2.4-0.6
			c-1-0.5-1.9-1.2-2.6-2.1s-1.3-2.2-1.7-3.7c-0.8-2.9-0.7-5.3,0.2-7c0.9-1.7,2.7-3,5.4-3.7l5.8-1.6l0.8,2.9L64.6,173.4z"/>
		<path class="st4" d="M93.5,166.8l-8.8,1.9c-0.9,0.2-1.6,0.5-2,1c-0.4,0.4-0.5,1.1-0.3,1.8c0.1,0.6,0.4,1,0.9,1.3
			c0.4,0.2,1,0.3,1.8,0.1l4.7-1c1.9-0.4,3.4-0.3,4.4,0.2c1,0.6,1.7,1.7,2,3.4c0.4,1.7,0.2,3.1-0.6,4.1c-0.8,1-2.2,1.7-4.2,2.2
			l-9.4,2l-0.6-3l8.9-1.9c1-0.2,1.7-0.5,2-0.9c0.3-0.4,0.5-0.9,0.3-1.6c-0.2-0.7-0.4-1.2-0.9-1.4c-0.4-0.2-1.1-0.2-2,0l-4.2,0.9
			c-1.9,0.4-3.4,0.3-4.5-0.2c-1.1-0.6-1.8-1.7-2.1-3.4c-0.4-1.8-0.2-3.2,0.6-4.2c0.8-1,2.2-1.8,4.2-2.2l9.3-2L93.5,166.8z"/>
		<path class="st4" d="M102.4,162l7.8-1.3c1.3-0.2,2.4-0.3,3.2-0.3c0.8,0,1.5,0.1,2,0.3c0.9,0.4,1.5,0.9,2.1,1.6s0.9,1.6,1.1,2.7
			c0.2,1,0.2,1.9,0,2.7c-0.2,0.8-0.6,1.5-1.2,2.1c-0.5,0.5-1.1,0.9-1.8,1.2s-1.8,0.6-3.3,0.8l-4.3,0.7l1,5.9l-3.6,0.6L102.4,162z
			 M110.6,163.7l-4.1,0.7l0.8,5l4.4-0.7c1.1-0.2,1.8-0.5,2.3-1c0.5-0.5,0.6-1.2,0.5-2c-0.2-0.9-0.5-1.5-1.1-1.8
			C112.8,163.5,111.8,163.5,110.6,163.7z"/>
		<path class="st4" d="M125.9,166.7c-0.4-2.9,0.1-5.2,1.3-6.8s3.3-2.6,6.2-2.9c2.9-0.4,5.1,0.1,6.7,1.4s2.5,3.4,2.9,6.5
			c0.4,3,0,5.4-1.3,7s-3.3,2.6-6.2,3c-2.9,0.4-5.2-0.1-6.7-1.4C127.3,172,126.3,169.8,125.9,166.7z M133.7,159.9
			c-1.5,0.2-2.6,0.8-3.3,1.9c-0.6,1.1-0.8,2.6-0.6,4.5c0.3,2.1,0.8,3.6,1.7,4.5c0.9,0.9,2.1,1.2,3.7,1c1.6-0.2,2.7-0.8,3.3-1.9
			c0.6-1.1,0.8-2.6,0.6-4.6c-0.3-2-0.8-3.5-1.7-4.4S135.3,159.7,133.7,159.9z"/>
		<path class="st4" d="M150.5,155.4l8.9-0.7c2.1-0.2,3.6,0.1,4.7,0.9c1,0.8,1.6,2,1.7,3.8c0.1,1.3-0.1,2.4-0.7,3.3
			c-0.5,0.9-1.4,1.5-2.5,1.8l4.8,6.9l-4.1,0.3l-4.3-6.5l-4.3,0.3l0.5,6.8l-3.6,0.3L150.5,155.4z M158.8,157.9l-4.4,0.3l0.3,4.3
			l4.4-0.3c1.2-0.1,2-0.3,2.5-0.7c0.4-0.4,0.6-0.9,0.6-1.7c-0.1-0.8-0.3-1.3-0.8-1.6C160.9,157.9,160,157.8,158.8,157.9z"/>
		<path class="st4" d="M178.4,156.8l-5.6,0.2l-0.1-3l14.9-0.4l0.1,3l-5.6,0.2l0.4,14.2l-3.7,0.1L178.4,156.8z"/>
		<path class="st4" d="M202.7,156.6c-1.3,0-2.3,0.3-3,0.9s-1.1,1.6-1.2,3l10,0.2l-0.1,3l-10-0.2c0,1.5,0.3,2.6,0.9,3.3s1.7,1,3.1,1
			l5.9,0.1l-0.1,3l-6.1-0.1c-1.4,0-2.4-0.2-3.2-0.4c-0.8-0.2-1.5-0.7-2.2-1.2c-0.9-0.7-1.5-1.7-1.9-2.8s-0.6-2.5-0.6-4.1
			c0.1-3,0.8-5.3,2.1-6.7c1.3-1.4,3.4-2.1,6.2-2l6,0.1l-0.1,3L202.7,156.6z"/>
		<path class="st4" d="M239.9,158.8c-1.5-0.1-2.6,0.2-3.4,1.1c-0.7,0.9-1.2,2.4-1.4,4.6c-0.2,1.9,0,3.2,0.6,4.1
			c0.6,0.8,1.6,1.3,3.2,1.5l5.9,0.6l-0.3,3l-6.1-0.6c-1.3-0.1-2.4-0.3-3.1-0.6c-0.7-0.3-1.4-0.8-2.1-1.4c-0.8-0.8-1.4-1.8-1.7-2.9
			c-0.3-1.2-0.4-2.5-0.3-4.1c0.3-3,1.2-5.2,2.6-6.5c1.5-1.3,3.6-1.8,6.3-1.6l6,0.6l-0.3,2.9L239.9,158.8z"/>
		<path class="st4" d="M259.2,175.4c-1.6-0.2-2.8-0.5-3.5-0.9c-0.7-0.4-1.4-0.9-1.9-1.7c-0.5-0.7-0.8-1.4-0.9-2.2
			c-0.1-0.8-0.1-1.8,0.1-3.2l1.3-10.2l3.6,0.5l-1.3,10c-0.1,1-0.2,1.7-0.1,2.1c0,0.4,0.1,0.8,0.3,1c0.3,0.4,0.7,0.8,1.1,1
			c0.5,0.2,1.1,0.4,2,0.5l4.2,0.6l-0.4,2.8L259.2,175.4z"/>
		<path class="st4" d="M276.9,160.6l-1.7,10.2c-0.3,1.6-0.2,2.7,0.3,3.5c0.5,0.7,1.4,1.2,2.8,1.4c1.4,0.2,2.4,0.1,3.1-0.4
			c0.7-0.5,1.1-1.6,1.4-3.2l1.7-10.2l3.6,0.6l-1.7,10.3c-0.2,1.2-0.4,2.1-0.7,2.8c-0.3,0.7-0.6,1.2-1,1.6c-0.8,0.7-1.8,1.1-2.9,1.3
			s-2.4,0.2-3.9-0.1c-1.5-0.3-2.8-0.7-3.8-1.2c-1-0.5-1.7-1.3-2.3-2.2c-0.3-0.5-0.4-1.1-0.5-1.8c0-0.7,0-1.7,0.3-3l1.7-10.3
			L276.9,160.6z"/>
		<path class="st4" d="M303.3,183l-9.3-1.9l3.5-16.9l8.7,1.8c1.1,0.2,2,0.5,2.6,0.7c0.7,0.3,1.2,0.6,1.5,0.9
			c0.5,0.5,0.9,1.1,1.1,1.8s0.2,1.4,0.1,2.2c-0.2,0.9-0.6,1.7-1.1,2.3c-0.5,0.6-1.3,1-2.2,1.3c0.8,0.5,1.3,1.2,1.6,1.9
			c0.3,0.7,0.3,1.5,0.1,2.5c-0.3,1.6-1,2.6-2.1,3.2C306.7,183.3,305.2,183.4,303.3,183z M303.4,179.9c0.8,0.2,1.4,0.1,1.9-0.1
			c0.4-0.2,0.7-0.7,0.9-1.4c0.1-0.7,0.1-1.2-0.2-1.6c-0.3-0.4-0.9-0.7-1.7-0.8l-5.2-1.1l-0.8,4L303.4,179.9z M300.4,167.9l-0.8,3.9
			l5.2,1.1c0.8,0.2,1.4,0.1,1.9-0.1s0.7-0.7,0.9-1.4c0.1-0.7,0.1-1.2-0.3-1.6c-0.3-0.4-0.9-0.7-1.7-0.8L300.4,167.9z"/>
		<path class="st4" d="M327.3,173.9c-1.3-0.3-2.3-0.2-3.1,0.2s-1.4,1.4-1.8,2.7l9.7,2.4l-0.7,2.9l-9.7-2.4c-0.4,1.5-0.3,2.6,0.1,3.4
			s1.4,1.4,2.8,1.7l5.8,1.4l-0.7,2.9l-5.9-1.5c-1.3-0.3-2.3-0.7-3-1.1c-0.7-0.4-1.3-1-1.8-1.7c-0.7-0.9-1.1-1.9-1.3-3.1
			c-0.2-1.2,0-2.6,0.3-4.1c0.7-3,1.9-5,3.6-6.1s3.8-1.3,6.5-0.6l5.8,1.5l-0.7,2.9L327.3,173.9z"/>
	</g>
	<g>
		<g>
			<path class="st7" d="M161.6,290.9h4v17.6h-4V290.9z"/>
			<path class="st7" d="M176.4,301.1c-2.2,0-3.8-0.4-4.8-1.2c-1-0.8-1.5-2-1.5-3.7c0-1.8,0.7-3.2,2.1-4.1c1.4-0.9,3.4-1.4,6.1-1.4
				c3.2,0,5.5,0.7,7,2.1c1.5,1.4,2.2,3.7,2.2,6.7c0,3.1-0.8,5.4-2.4,6.8c-1.6,1.4-4,2.2-7.4,2.2H171v-3h6.7c1.7,0,3-0.4,3.9-1.1
				c0.8-0.7,1.3-1.8,1.4-3.3H176.4z M176.6,298.1l6.3,0c0-1.6-0.4-2.7-1.2-3.4c-0.8-0.7-2.1-1-3.9-1c-1.2,0-2.1,0.2-2.7,0.5
				c-0.6,0.4-0.8,1-0.8,1.8c0,0.7,0.2,1.2,0.6,1.6C175.3,297.9,175.8,298.1,176.6,298.1z"/>
			<path class="st7" d="M194,299.7c-0.8-0.5-1.4-1.2-1.8-1.9c-0.4-0.7-0.6-1.5-0.6-2.3c0-1.6,0.5-2.7,1.5-3.4c1-0.7,2.5-1.1,4.6-1.1
				h5c2,0,3.6,0.4,4.6,1.1c1,0.7,1.5,1.9,1.5,3.4c0,0.9-0.2,1.7-0.6,2.4c-0.4,0.7-1,1.3-1.8,1.9c0.9,0.4,1.6,0.9,2,1.6
				c0.4,0.7,0.6,1.5,0.6,2.6c0,1.5-0.5,2.6-1.5,3.5c-1,0.8-2.4,1.2-4.2,1.2h-6.1c-1.8,0-3.2-0.4-4.2-1.2c-1-0.8-1.5-2-1.5-3.5
				c0-1,0.2-1.9,0.7-2.5C192.5,300.6,193.1,300.1,194,299.7z M198.7,301.2c-1,0-1.8,0.2-2.2,0.5c-0.5,0.3-0.7,0.9-0.7,1.6
				s0.2,1.3,0.7,1.6c0.5,0.3,1.2,0.5,2.3,0.5h2.8c1,0,1.8-0.2,2.3-0.5c0.5-0.3,0.7-0.9,0.7-1.6c0-0.7-0.2-1.3-0.7-1.6
				c-0.5-0.4-1.2-0.5-2.3-0.5H198.7z M198.7,293.9c-1,0-1.8,0.2-2.3,0.5c-0.5,0.3-0.7,0.9-0.7,1.6c0,0.7,0.2,1.3,0.7,1.6
				c0.5,0.3,1.2,0.5,2.3,0.5h2.8c1,0,1.8-0.2,2.3-0.5c0.5-0.3,0.7-0.9,0.7-1.6c0-0.7-0.2-1.3-0.7-1.6c-0.5-0.3-1.2-0.5-2.3-0.5
				H198.7z"/>
			<path class="st7" d="M224.7,305.3h-11.8v-3.4l10.8-11h4.9v11.4h2.5v3h-2.5v3.2h-3.9V305.3z M224.7,294.7l-7.4,7.6h7.4V294.7z"/>
		</g>
		<ellipse class="st7" cx="178.3" cy="296.4" rx="4.6" ry="1.7"/>
		<ellipse class="st7" cx="200.5" cy="296.2" rx="4.4" ry="1.4"/>
		<ellipse class="st7" cx="200.4" cy="303.7" rx="4.7" ry="1.6"/>
		<ellipse class="st7" cx="222.3" cy="300.2" rx="1.6" ry="2.1"/>
	</g>
	<g>
		<path class="st8" d="M161.6,290.8h4.1v17.7h-4.1V290.8z"/>
		<path class="st8" d="M176.4,301.1c-2.2,0-3.8-0.4-4.9-1.2c-1-0.8-1.6-2-1.6-3.7c0-1.8,0.7-3.2,2.1-4.2c1.4-0.9,3.4-1.4,6.1-1.4
			c3.2,0,5.5,0.7,7,2.2c1.5,1.4,2.2,3.7,2.2,6.8c0,3.1-0.8,5.4-2.4,6.9c-1.6,1.5-4.1,2.2-7.5,2.2H171v-3h6.7c1.8,0,3.1-0.4,3.9-1.1
			c0.9-0.7,1.3-1.8,1.4-3.4H176.4z M176.7,298.1l6.4,0c0-1.6-0.4-2.7-1.2-3.4c-0.8-0.7-2.1-1-3.9-1c-1.2,0-2.1,0.2-2.7,0.6
			c-0.6,0.4-0.8,1-0.8,1.8c0,0.7,0.2,1.2,0.6,1.6C175.3,297.9,175.9,298.1,176.7,298.1z"/>
		<path class="st8" d="M194.2,299.7c-0.8-0.6-1.4-1.2-1.8-1.9c-0.4-0.7-0.6-1.5-0.6-2.4c0-1.6,0.5-2.7,1.5-3.5s2.5-1.1,4.6-1.1h5
			c2.1,0,3.6,0.4,4.6,1.1s1.5,1.9,1.5,3.4c0,0.9-0.2,1.7-0.6,2.4s-1,1.4-1.8,1.9c0.9,0.4,1.6,0.9,2,1.6c0.4,0.7,0.6,1.5,0.6,2.6
			c0,1.5-0.5,2.7-1.5,3.5c-1,0.8-2.4,1.2-4.2,1.2h-6.1c-1.8,0-3.3-0.4-4.3-1.2c-1-0.8-1.5-2-1.5-3.5c0-1,0.2-1.9,0.7-2.6
			C192.7,300.6,193.3,300.1,194.2,299.7z M198.9,301.2c-1,0-1.8,0.2-2.3,0.5c-0.5,0.4-0.7,0.9-0.7,1.6s0.2,1.3,0.7,1.6
			c0.5,0.3,1.2,0.5,2.3,0.5h2.9c1,0,1.8-0.2,2.3-0.5c0.5-0.4,0.7-0.9,0.7-1.6c0-0.7-0.2-1.3-0.7-1.6c-0.5-0.4-1.3-0.5-2.3-0.5H198.9
			z M199,293.9c-1,0-1.8,0.2-2.3,0.5s-0.7,0.9-0.7,1.6c0,0.7,0.2,1.3,0.7,1.6c0.5,0.3,1.2,0.5,2.3,0.5h2.8c1,0,1.8-0.2,2.3-0.5
			s0.7-0.9,0.7-1.6c0-0.7-0.2-1.3-0.7-1.6s-1.2-0.5-2.3-0.5H199z"/>
		<path class="st8" d="M225.1,305.4h-11.9v-3.4l10.9-11.1h4.9v11.5h2.5v3H229v3.2h-3.9V305.4z M225.1,294.6l-7.5,7.7h7.5V294.6z"/>
	</g>
	<g>
		<path class="st4" d="M50.4,124.4l17.6-3.8c6.2-1.3,11.1-0.6,14.8,2.2c3.7,2.8,6.3,7.7,7.9,14.8c0.8,3.7,1,6.9,0.6,9.8
			c-0.4,2.8-1.4,5.3-3,7.4c-1.2,1.6-2.6,2.9-4.2,3.8c-1.6,0.9-3.9,1.7-6.9,2.3l-17.8,3.8L50.4,124.4z M69.4,127.7l-9.3,2l5.9,26.2
			l9.3-2c3.6-0.8,5.8-2.2,6.7-4.4c0.9-2.2,0.8-5.7-0.3-10.7c-1.1-5-2.6-8.2-4.3-9.8C75.6,127.3,72.9,126.9,69.4,127.7z"/>
		<path class="st4" d="M94.2,132.7c-0.7-7,0.3-12.5,3.2-16.2c2.8-3.8,7.6-6,14.1-6.6c6.6-0.7,11.7,0.6,15.2,3.7
			c3.5,3.2,5.7,8.4,6.5,15.6c0.8,7.2-0.3,12.8-3.1,16.6c-2.8,3.8-7.5,6.1-14.1,6.7c-6.7,0.7-11.8-0.6-15.3-3.8
			C97.2,145.5,95,140.2,94.2,132.7z M112.3,116.8c-3.5,0.4-6,1.8-7.5,4.3c-1.5,2.5-2,6.1-1.5,10.7c0.5,5.1,1.8,8.7,3.7,10.9
			c1.9,2.2,4.7,3.1,8.3,2.7c3.6-0.4,6.1-1.8,7.6-4.3c1.5-2.5,2-6.2,1.4-11c-0.5-4.9-1.8-8.4-3.7-10.5
			C118.6,117.4,115.8,116.5,112.3,116.8z"/>
		<path class="st4" d="M155,113.1c-3.4,0.2-5.8,1.5-7.1,3.9c-1.3,2.4-1.8,6.2-1.4,11.4c0.3,4.5,1.3,7.6,2.8,9.4
			c1.6,1.7,4.1,2.5,7.7,2.3l13.5-0.9l0.5,7.2l-13.9,1c-3.1,0.2-5.5,0.1-7.3-0.3c-1.8-0.4-3.5-1.2-5.2-2.4c-2.1-1.5-3.8-3.6-5-6.2
			c-1.2-2.6-1.9-5.8-2.2-9.6c-0.5-7.3,0.6-12.7,3.3-16.4c2.8-3.7,7.3-5.7,13.6-6.1l13.7-0.9l0.5,7L155,113.1z"/>
		<path class="st4" d="M194.7,112.3c-3,0-5.2,0.8-6.8,2.3c-1.5,1.6-2.4,4-2.6,7.2l22.8,0.1l0,7.2l-22.9-0.1c0,3.6,0.7,6.2,2.1,7.7
			c1.4,1.6,3.8,2.4,7.1,2.4l13.5,0.1l0,7.2l-13.9-0.1c-3.1,0-5.5-0.3-7.3-0.9c-1.8-0.6-3.4-1.5-5-2.8c-2-1.7-3.5-3.9-4.5-6.6
			c-1-2.7-1.5-5.9-1.5-9.7c0-7.3,1.6-12.7,4.6-16.1c3-3.5,7.7-5.2,14-5.1l13.7,0.1l0,7.2L194.7,112.3z"/>
		<path class="st4" d="M226.9,105.1l12.1,1l7.2,32.3l12.8-30.7l12,1l-3.6,41.1l-8.1-0.7l3.5-31.9l-12.9,31.1l-8.7-0.7l-7.5-33.2
			l-2,32.4l-8.4-0.7L226.9,105.1z"/>
		<path class="st4" d="M296.5,119.8c-3-0.3-5.3,0.2-7,1.6c-1.7,1.4-2.8,3.7-3.3,6.9l22.7,2.5l-0.8,7.1l-22.7-2.4
			c-0.4,3.6,0,6.2,1.3,7.9c1.2,1.7,3.5,2.7,6.9,3.1l13.5,1.4l-0.8,7.1l-13.9-1.5c-3.1-0.3-5.4-0.9-7.1-1.6c-1.7-0.7-3.2-1.8-4.6-3.3
			c-1.8-1.9-3.1-4.2-3.8-7c-0.7-2.8-0.8-6.1-0.4-9.8c0.8-7.2,2.9-12.4,6.3-15.6c3.4-3.1,8.2-4.3,14.5-3.7l13.6,1.5l-0.8,7.1
			L296.5,119.8z"/>
		<path class="st4" d="M330.9,160.6c-3.6-0.5-6.3-1.1-8-2c-1.7-0.9-3.1-2.2-4.3-3.9c-1.1-1.6-1.8-3.3-2.1-5.1
			c-0.3-1.8-0.2-4.4,0.2-7.6l3.2-24.3l8.2,1l-3.2,24c-0.3,2.4-0.4,4.1-0.4,5.1c0.1,1,0.3,1.8,0.7,2.5c0.6,1.1,1.5,1.9,2.6,2.4
			c1.1,0.6,2.6,1,4.6,1.2l9.6,1.2l-0.9,6.8L330.9,160.6z"/>
	</g>
</g>
</svg>
