<?xml version="1.0" encoding="utf-8"?>
<!-- Generator: Adobe Illustrator 23.0.1, SVG Export Plug-In . SVG Version: 6.00 Build 0)  -->
<svg version="1.1" id="Layer_1" xmlns="http://www.w3.org/2000/svg" xmlns:xlink="http://www.w3.org/1999/xlink" x="0px" y="0px"
	 viewBox="0 0 600 600" style="enable-background:new 0 0 600 600;" xml:space="preserve">
<style type="text/css">
	.st0{fill-rule:evenodd;clip-rule:evenodd;fill:#FFFFFF;}
	.st1{fill:#006B42;}
	.st2{fill-rule:evenodd;clip-rule:evenodd;fill:#006B42;}
	.st3{fill-rule:evenodd;clip-rule:evenodd;fill:#AF241C;}
</style>
<g>
	<g>
		<path class="st0" d="M300.08,10.57c-62.11,80.65-142.34,112.11-240.04,92.2C57.77,366.62,174,491.27,300.1,591.66
			c124.77-99.07,243.11-225.83,239.84-488.66C438.47,122.74,362.75,92.12,300.08,10.57L300.08,10.57z"/>
		<path class="st1" d="M300.09,588.93l-3.71-2.95c-55.2-43.95-117.78-99.48-163.47-178.15c-48.2-83-71.13-180.41-70.13-297.82
			l0.07-7.73l7.24,1.48c90.95,18.54,166.72-10.56,225.2-86.51l4.78-6.21l4.78,6.22c59.52,77.45,131.03,105.02,225.07,86.72
			l7.16-1.39l0.09,7.63c3.15,252.76-110.31,378.03-233.38,475.76L300.09,588.93z M75.03,117.77
			c0.15,251.61,115.42,367.21,225.06,455.01c117.84-94.28,225.6-215.34,224.87-454.84c-92.94,16.04-164.74-11.59-224.9-86.55
			C240.77,104.83,165.12,133.88,75.03,117.77z"/>
	</g>
	<path class="st2" d="M483.58,314.66c-28.36,76.42-82.49,155.89-183.6,242.03c-93.65-80.29-147.01-155.61-176.9-227.57
		c-1.27-3.05-2.49-6.09-3.67-9.12C117.64,315.49,484.59,311.94,483.58,314.66z"/>
	<path class="st3" d="M87.01,135.17c127.3,1.4,163.9-25.49,212.98-82.54c52.97,55.38,88.09,84.27,213.02,82.55
		c-0.48,52.43-9.57,117.48-26.5,171.33H114.39C96.98,252,87.58,186.76,87.01,135.17L87.01,135.17z"/>
	<path class="st0" d="M210.92,430.91v-49.62c-35.27-13.63-60.96-37.05-66.33-57.92h-25.88c-2.68-8.94-5.18-6.77-7.48-16.15h35.01
		c9.78-17.46,35.15-39.65,64.68-51.36v-27.05c0-18.53-2.88-34.71-9.78-48.98c-1.53-2.98,0.58-6.6,3.26-6.18
		c12.84,2.34,25.69,3.83,39.11,0c17.06-4.26,33.55-6.6,49.84-7.03c-1.34-7.45-4.03-13.63-6.9-20.44c-1.34-3.19,0.58-6.6,3.45-6.18
		c12.46,2.13,23-1.07,36.23-4.9c40.45-10.01,63.07,0.21,99.11,8.73c7.29,1.7,15.53,1.92,23.01-0.64
		c-3.83,7.45-10.16,12.99-18.4,17.04c3.45,3.62,5.75,7.88,6.9,12.35c-38.53-11.93-61.92-20.02-101.8-9.37
		c-4.79,0.85-8.24,2.34-10.74,4.47c11.12,1.28,22.05,3.83,32.97,5.96c7.48,1.49,15.14,0.43,22.62-2.13
		c-3.83,7.45-9.97,12.99-18.4,17.04c3.45,3.62,5.75,7.88,7.09,12.35c-16.1-4.9-32.59-7.88-49.27-8.94v8.94
		c11.89,1.06,23.58,3.19,33.55,5.11c7.28,1.49,14.95,0.21,22.43-2.13c-3.64,7.45-9.97,12.99-18.4,17.04
		c3.45,3.62,5.75,7.88,7.09,12.35c-13.99-4.26-29.52-7.24-44.67-8.52v9.8c18.6-0.64,37.38,0.21,55.79,2.77
		c11.12,1.49,21.4,4.69,31.94,10.01c7.09,2.77,17.52,3.62,25.18,3.19c-4.98,6.18-12.27,10.22-21.09,12.35
		c2.68,4.47,4.22,8.94,4.6,13.63c-13.42-7.67-27.41-12.78-42.18-16.18c-16.29-3.62-34.7-5.54-54.06-5.54l0.19,52.43h35.66
		c8.44-7.45,10.59-7.1,19.41-11.58c-3.26,7.03-0.05,5.19-1.2,11.58h120.5c-2.3,9.37-4.79,7.2-7.48,16.15H375.02
		c1.34,3.62,3.07,7.45,5.56,10.86c-7.09-0.64-13.99-5.54-21.09-10.86h-39.68l0.19,37.26v16.82c19.75-0.43,38.15-4.26,54.25-8.09
		c13.99-3.41,28.37-8.31,41.79-14.48c-0.38,4.9-1.92,9.37-4.6,13.84c9.01,1.92,17.06,7.45,22.05,13.84c-7.67-0.64-16.3,0-23.39,3.19
		c-10.54,4.9-21.28,7.24-33.17,9.8c-18.4,3.62-37.58,5.32-56.75,5.11l0.38,88.38c0.19,16.18,7.29,30.66,14.38,44.29
		c-10.16-5.54-19.75-12.57-28.37-21.3c-4.41,6.39-10.16,11.07-16.68,14.06c4.98-10.01,5.94-21.08,5.94-35.56l-0.38-90.72
		c-5.75-0.64-11.69-1.28-17.44-1.92c0,21.51,0.19,43.23,0.19,64.95c1.15,16.18,7.28,30.67,14.38,44.29
		c-10.16-5.54-19.75-12.35-28.37-21.3c-4.41,6.6-10.16,11.07-16.87,14.27c4.99-10.01,6.13-21.3,6.13-35.56v-70.91
		c-6.13-1.28-12.08-2.77-17.83-4.47l0.19,40.25c0,15.97,7.09,30.67,14.19,44.08c-10.16-5.32-19.55-12.35-28.18-21.08
		c-4.6,6.39-10.35,10.86-17.06,14.05C209.96,456.46,210.92,445.39,210.92,430.91L210.92,430.91z M179.65,323.37
		c4.22,7.88,20.34,20.01,31.27,26.83v-26.83h-23.01H179.65z M235.26,323.37l0.19,39.18c5.56,2.13,11.69,4.26,18.02,5.96v-45.14
		H235.26L235.26,323.37z M277.44,323.37l0.19,11.07l0.19,39.61c5.75,1.06,11.69,1.7,17.64,2.34l-0.19-53.02H277.44L277.44,323.37z
		 M295.27,307.23v-51.36c-6.33,0.64-12.65,1.28-18.79,2.34l0.19,22.36l0.38,26.66H295.27L295.27,307.23z M253.48,307.23v-43.91
		c-6.71,1.7-13.04,3.83-18.98,6.18l0.58,37.73H253.48L253.48,307.23z M210.92,307.23v-26.24c-9.59,5.96-19.68,11.81-29.74,26.24
		H210.92L210.92,307.23z M295.27,236.27v-11.71c-9.2,0.64-17.64,1.92-18.79,8.09v5.96C282.62,237.55,288.94,236.91,295.27,236.27
		L295.27,236.27z M253.28,242.87c-0.58-12.78-2.88-24.7-7.09-34.29c-1.53-3.19,0.58-6.6,3.26-6.18c12.84,2.13,26.84-1.49,39.3-1.92
		c2.11-0.21,4.22-0.21,6.33-0.21v-4.26c0-1.49,0-2.77,0-4.26c-15.53,0.85-31.06,3.41-46.2,7.45c-9.58,1.49-14.38,6.18-15.72,12.78
		l0.96,34.92v1.06C240.25,246.07,246.77,244.36,253.28,242.87L253.28,242.87z"/>
</g>
</svg>
