<?xml version="1.0" encoding="utf-8"?>
<!-- Generator: Adobe Illustrator 23.0.1, SVG Export Plug-In . SVG Version: 6.00 Build 0)  -->
<svg version="1.1" id="Layer_1" xmlns="http://www.w3.org/2000/svg" xmlns:xlink="http://www.w3.org/1999/xlink" x="0px" y="0px"
	 viewBox="0 0 595.3 595.3" style="enable-background:new 0 0 595.3 595.3;" xml:space="preserve">
<style type="text/css">
	.st0{fill:#00A95A;}
	.st1{fill:#FFF111;}
	.st2{fill:#ED3539;}
	.st3{fill:#FFFFFF;}
	.st4{fill:#00B15B;}
	.st5{fill:#403B36;}
	.st6{fill:#F9F2F3;}
	.st7{fill:#696A68;}
	.st8{fill:#C5B085;}
	.st9{fill:#FFF011;}
	.st10{fill:#07AEEC;}
	.st11{fill:#F9FAF9;}
	.st12{fill:#EB3237;}
	.st13{fill:#88A548;}
	.st14{fill:#1C715B;}
	.st15{fill:#C89266;}
	.st16{fill:#E9363B;}
	.st17{fill:#FAEE14;}
	.st18{fill:#E2DEDE;}
</style>
<circle class="st0" cx="297.6" cy="297.6" r="291"/>
<circle class="st1" cx="297.6" cy="297.6" r="276.9"/>
<circle class="st2" cx="297.6" cy="297.6" r="258.2"/>
<g>
	<path class="st3" d="M114.6,422.9l-5.1-7.5c1.2-0.9,1.9-1.8,2.3-2.7c0.6-1.5,0.4-3-0.5-4.6c-0.7-1.2-1.5-1.9-2.4-2.2
		c-0.9-0.3-1.7-0.2-2.5,0.2c-0.7,0.4-1.1,1.1-1.3,2c-0.2,0.9,0.1,2.6,0.9,5.1c1.3,4.1,1.8,7.3,1.3,9.6c-0.4,2.3-1.7,4.1-3.7,5.3
		c-1.4,0.8-2.9,1.2-4.6,1.1c-1.7-0.1-3.3-0.7-5-1.9s-3.3-3.1-4.9-5.9c-2-3.4-2.9-6.3-2.7-8.9c0.2-2.5,1.6-4.8,4.1-6.7l5,7.5
		c-1.1,0.9-1.7,1.9-1.8,2.8c-0.2,1,0.1,2,0.8,3.2c0.6,1,1.2,1.6,1.9,1.8c0.7,0.2,1.3,0.2,1.9-0.1c0.4-0.3,0.7-0.7,0.8-1.3
		c0.1-0.6-0.1-1.7-0.6-3.3c-1.3-4-2.1-7.1-2.2-9.1s0.2-3.7,0.9-5.1c0.8-1.4,1.9-2.5,3.3-3.4c1.7-1,3.5-1.5,5.5-1.4
		c2,0.1,3.9,0.8,5.6,2c1.7,1.2,3.4,3.2,4.9,5.7c2.7,4.5,3.6,8.1,2.9,10.9S117.2,421.1,114.6,422.9z"/>
	<path class="st3" d="M93.7,397.2c-4.7,1.9-8.8,2-12.5,0.5c-3.6-1.6-6.4-4.7-8.2-9.3c-1.9-4.8-2.1-8.9-0.6-12.5
		c1.5-3.6,4.6-6.3,9.2-8.1c3.3-1.3,6.3-1.9,8.9-1.6c2.6,0.3,4.9,1.2,6.9,2.9c2,1.6,3.7,4.1,5,7.2c1.3,3.2,1.8,6.1,1.7,8.6
		c-0.2,2.5-1.1,4.9-2.8,7.1C99.5,394.1,97,395.9,93.7,397.2z M90.2,388.4c2.9-1.2,4.7-2.5,5.6-4.1c0.8-1.6,0.9-3.3,0.1-5.1
		c-0.8-1.9-2-3.1-3.6-3.7c-1.6-0.5-4.1-0.2-7.3,1.1c-2.7,1.1-4.4,2.4-5.2,4c-0.8,1.6-0.8,3.3-0.1,5.2c0.7,1.8,1.9,3,3.6,3.5
		C85,389.8,87.3,389.5,90.2,388.4z"/>
	<path class="st3" d="M78.3,340.8l0.6-8.7c2.4,0,4.5,0.5,6.3,1.3c1.8,0.8,3.3,2,4.5,3.6s2.1,3.7,2.7,6.4c0.7,3.3,0.9,6,0.4,8.3
		c-0.5,2.3-1.7,4.4-3.8,6.5c-2,2-4.9,3.5-8.7,4.3c-5,1.1-9.1,0.7-12.3-1.4s-5.4-5.5-6.5-10.3c-0.9-3.8-0.8-6.9,0.3-9.4
		c1-2.5,3-4.6,6-6.4l3.7,7.8c-0.8,0.5-1.5,0.9-1.8,1.4c-0.6,0.7-1,1.4-1.2,2.3c-0.2,0.8-0.2,1.7,0,2.6c0.5,2.1,1.7,3.5,3.6,4.3
		c1.4,0.6,3.5,0.5,6.2-0.1c3.3-0.8,5.5-1.8,6.5-3.1c1-1.3,1.3-2.8,0.9-4.7c-0.4-1.8-1.2-3-2.4-3.7S80.3,340.8,78.3,340.8z"/>
	<path class="st3" d="M58,329l-1-9.5l30.6-3.4l1,9.5L58,329z"/>
	<path class="st3" d="M56.1,310.2l0-25.5l6.6,0l0,16l4.9,0l0-14.8l6.3,0l0,14.8l6.1,0l0-16.4l7,0l0,26L56.1,310.2z"/>
	<path class="st3" d="M56.7,275.5l2.1-14c0.4-2.8,1.1-4.9,2.1-6.5c1-1.6,2.3-2.8,3.8-3.7s3.3-1.5,5.2-1.7c1.9-0.2,3.9-0.2,6,0.1
		c3.3,0.5,5.7,1.2,7.4,2.2c1.7,1,3,2.3,4,3.8c1,1.5,1.6,3,1.8,4.6c0.2,2.1,0.2,4.1,0,5.7l-2.1,14L56.7,275.5z M65,267.2l16.6,2.5
		l0.3-2.3c0.3-2,0.3-3.4,0-4.3c-0.3-0.9-1-1.7-2-2.3c-1-0.6-2.7-1.1-5.2-1.5c-3.2-0.5-5.5-0.3-6.9,0.6c-1.3,0.9-2.2,2.5-2.6,5
		L65,267.2z"/>
	<path class="st3" d="M92.5,230.4l-3.1,10.3l4.4,2.9L91,253l-26.1-20l3-9.9l32.8-2.2l-2.9,9.5L92.5,230.4z M85.6,230.4L74,230.4
		l9.6,6.4L85.6,230.4z"/>
	<path class="st3" d="M73.9,205.8L80,193c1.2-2.5,2.5-4.4,3.9-5.6c1.4-1.2,3-2,4.8-2.4c1.8-0.4,3.6-0.4,5.5-0.1
		c1.9,0.4,3.8,1,5.7,1.9c3,1.4,5.1,2.9,6.4,4.3s2.2,3.1,2.8,4.8c0.5,1.7,0.7,3.4,0.4,4.9c-0.4,2.1-1,3.9-1.7,5.5l-6.1,12.7
		L73.9,205.8z M84.3,200.2l15.2,7.3l1-2.1c0.9-1.8,1.3-3.2,1.2-4.1c0-0.9-0.4-1.9-1.2-2.8c-0.8-0.9-2.3-1.9-4.5-2.9
		c-2.9-1.4-5.2-1.9-6.7-1.4s-2.8,1.8-3.9,4L84.3,200.2z"/>
	<path class="st3" d="M90.5,173l14.2-21.1l5.5,3.7l-8.9,13.2l4.1,2.7l8.3-12.3l5.2,3.5l-8.3,12.3l5,3.4l9.2-13.6l5.8,3.9L116,190.2
		L90.5,173z"/>
	<path class="st3" d="M120.8,132.6l10.2-9.8c2-1.9,3.9-3.2,5.7-3.9c1.8-0.6,3.5-0.8,5.3-0.6c1.8,0.2,3.5,0.9,5.2,1.9
		c1.7,1,3.2,2.3,4.7,3.8c2.3,2.4,3.8,4.5,4.5,6.3c0.7,1.8,1,3.6,0.9,5.4c-0.1,1.8-0.6,3.4-1.4,4.7c-1.1,1.9-2.3,3.4-3.5,4.5
		l-10.2,9.8L120.8,132.6z M132.5,131l11.7,12.1l1.7-1.6c1.4-1.4,2.3-2.5,2.6-3.4c0.3-0.9,0.2-1.9-0.2-3c-0.4-1.1-1.5-2.6-3.2-4.3
		c-2.3-2.3-4.2-3.6-5.8-3.7c-1.6-0.1-3.3,0.7-5.1,2.4L132.5,131z"/>
	<path class="st3" d="M147.8,107.7l20.8-14.8l3.8,5.4l-13,9.3l2.8,4l12.1-8.6l3.6,5.1l-12.1,8.6l3.5,4.9l13.4-9.5l4,5.7l-21.1,15.1
		L147.8,107.7z"/>
	<path class="st3" d="M184.2,107.4l7.8-4.7c0.8,1.2,1.7,2,2.6,2.4c1.4,0.7,3,0.6,4.6-0.3c1.2-0.6,2-1.4,2.4-2.3
		c0.4-0.9,0.3-1.7,0-2.5c-0.4-0.7-1-1.2-1.9-1.4c-0.9-0.2-2.6,0-5.1,0.6c-4.1,1.1-7.4,1.3-9.6,0.8c-2.3-0.6-4-1.9-5.1-4
		c-0.7-1.4-1-2.9-0.8-4.6c0.2-1.7,0.9-3.3,2.2-4.8c1.3-1.6,3.3-3.1,6.2-4.5c3.5-1.8,6.5-2.5,9-2.2c2.5,0.4,4.7,1.9,6.5,4.5l-7.7,4.6
		c-0.8-1.1-1.8-1.8-2.7-2c-1-0.2-2,0-3.2,0.6c-1,0.5-1.6,1.1-1.9,1.8c-0.3,0.7-0.3,1.3,0,1.9c0.2,0.4,0.6,0.7,1.2,0.9
		c0.6,0.2,1.7,0,3.4-0.5c4.1-1.1,7.2-1.7,9.2-1.7c2,0,3.7,0.4,5.1,1.2c1.3,0.8,2.4,2,3.2,3.5c0.9,1.8,1.3,3.6,1,5.6
		c-0.2,2-1,3.8-2.3,5.5c-1.3,1.7-3.3,3.2-6,4.5c-4.7,2.4-8.3,3.2-11.1,2.3C188.1,111.8,185.9,110,184.2,107.4z"/>
	<path class="st3" d="M207.1,73.2L222,68c3.3-1.1,6-1.2,8.1-0.2c2.2,1,3.7,2.9,4.7,5.8c1,2.9,0.9,5.5-0.3,7.8
		c-1.2,2.3-3.6,4-7.2,5.3l-4.9,1.7l3.7,10.8l-9,3.1L207.1,73.2z M220.4,82.4l2.2-0.8c1.7-0.6,2.8-1.3,3.3-2.2
		c0.5-0.8,0.6-1.7,0.3-2.7c-0.3-0.9-0.9-1.6-1.7-2c-0.8-0.4-2.1-0.3-3.8,0.2l-2.6,0.9L220.4,82.4z"/>
	<path class="st3" d="M241.6,77.7c-0.9-4.9-0.2-9,2-12.3c2.2-3.3,5.8-5.3,10.7-6.2c5-0.9,9.2-0.3,12.4,1.9c3.2,2.2,5.3,5.7,6.2,10.6
		c0.7,3.5,0.6,6.5-0.2,9c-0.8,2.5-2.2,4.6-4.2,6.2c-2,1.7-4.7,2.8-8.1,3.4c-3.4,0.6-6.3,0.6-8.8-0.1c-2.4-0.7-4.6-2.1-6.4-4.2
		C243.5,84.1,242.3,81.3,241.6,77.7z M251,76.1c0.6,3.1,1.5,5.1,2.9,6.3c1.4,1.1,3,1.5,5,1.1c2-0.4,3.4-1.3,4.3-2.8
		c0.9-1.5,1-4,0.4-7.3c-0.5-2.8-1.5-4.8-2.9-5.9c-1.4-1.1-3.1-1.5-5-1.1c-1.9,0.3-3.3,1.3-4.2,2.8C250.6,70.7,250.4,73,251,76.1z"/>
	<path class="st3" d="M279.9,86.8l-0.8-30.8l15.8-0.4c2.9-0.1,5.2,0.1,6.8,0.6c1.6,0.5,2.8,1.4,3.8,2.7c1,1.3,1.5,3,1.6,4.9
		c0,1.7-0.3,3.2-1,4.4c-0.7,1.3-1.7,2.3-2.9,3.1c-0.8,0.5-1.9,0.9-3.3,1.3c1.1,0.4,2,0.7,2.5,1.1c0.4,0.2,0.9,0.8,1.6,1.6
		c0.7,0.8,1.1,1.4,1.4,1.9l4.8,8.8l-10.7,0.3l-5.3-9.3c-0.7-1.2-1.3-2-1.8-2.3c-0.7-0.5-1.5-0.7-2.3-0.7l-0.8,0l0.3,12.5L279.9,86.8
		z M289,68.3l4-0.1c0.4,0,1.3-0.2,2.5-0.5c0.6-0.1,1.1-0.5,1.5-1c0.4-0.5,0.6-1.1,0.6-1.8c0-1-0.4-1.7-1-2.3s-1.8-0.8-3.6-0.7
		l-4.2,0.1L289,68.3z"/>
	<path class="st3" d="M313.4,55.7l28.7,3.5l-0.9,7.5l-9.6-1.2l-2.8,23l-9.4-1.2l2.8-23l-9.6-1.2L313.4,55.7z"/>
	<path class="st3" d="M349.2,61l9.3,2.2l-7.1,30l-9.3-2.2L349.2,61z"/>
	<path class="st3" d="M364.9,64.4l9.4,3.4l-1,23.2l14-18.5l9.1,3.3L375,100.8l-9.7-3.5L364.9,64.4z"/>
	<path class="st3" d="M404.5,109.1L395,104l-3.7,3.8l-8.6-4.6l24.6-21.8l9.2,4.9l-4.2,32.6l-8.8-4.7L404.5,109.1z M405.9,102.3
		l2.2-11.4l-8.2,8.2L405.9,102.3z"/>
	<path class="st3" d="M454.7,112.9l7.3,6.1l-10.7,12.9c-2.2,2.7-4.2,4.6-5.8,5.6c-1.7,1-3.6,1.4-5.9,1.2s-4.5-1.3-6.8-3.2
		c-2.4-2-4-3.9-4.7-5.6c-0.8-1.7-1-3.5-0.7-5.4c0.3-1.8,1.2-3.7,2.6-5.7l7.8,4.9c-0.9,1.1-1.4,1.9-1.7,2.6c-0.2,0.6-0.3,1.3-0.1,2
		c0.1,0.4,0.4,0.9,0.9,1.3c0.8,0.7,1.7,0.9,2.6,0.6c0.9-0.3,1.9-1.2,3.1-2.6L454.7,112.9z"/>
	<path class="st3" d="M482.6,140.5l6.3,7.1l-13.7,12.2c-1.4,1.2-2.8,2.1-4.4,2.8c-1.6,0.7-3.2,0.9-4.9,0.8c-1.7-0.1-3.2-0.5-4.4-1.1
		c-1.7-0.9-3.5-2.3-5.2-4.3c-1-1.1-2-2.4-3-3.9c-1-1.5-1.7-2.8-2-4.1s-0.4-2.7-0.2-4.2c0.2-1.5,0.6-2.8,1.3-3.9
		c1.1-1.7,2.2-3.1,3.3-4.1l13.7-12.2l6.3,7.1l-14,12.5c-1.3,1.1-1.9,2.3-2,3.7c-0.1,1.3,0.4,2.6,1.5,3.8c1.1,1.2,2.3,1.9,3.6,1.9
		c1.3,0.1,2.6-0.5,3.9-1.6L482.6,140.5z"/>
	<path class="st3" d="M482.8,184.2l-5.9-9l-5.1,1.5l-5.3-8.1l32.1-7.1l5.7,8.7l-19.5,26.5l-5.4-8.3L482.8,184.2z M487.3,178.9
		l7.4-8.9l-11.1,3.2L487.3,178.9z"/>
	<path class="st3" d="M513.2,185l11.2,24.5l-5.6,2.6l-23.6-8.2l7.5,16.3l-6,2.8l-12.2-26.6l5.8-2.7l23.3,8.1l-6.4-14L513.2,185z"/>
	<path class="st3" d="M527.2,217.2l7.2,24.4l-6.3,1.9l-4.5-15.3l-4.7,1.4l4.2,14.2l-6,1.8l-4.2-14.2l-5.8,1.7l4.7,15.7l-6.7,2
		l-7.3-24.9L527.2,217.2z"/>
	<path class="st3" d="M535.9,250.1l1.7,9.4l-30.3,5.5l-1.7-9.4L535.9,250.1z"/>
	<path class="st3" d="M508.6,270.9l30.7-2l1,15.8c0.2,2.9,0.1,5.2-0.3,6.8c-0.4,1.6-1.3,2.9-2.5,3.9c-1.3,1-2.9,1.6-4.9,1.8
		c-1.7,0.1-3.2-0.2-4.5-0.8c-1.3-0.6-2.4-1.6-3.2-2.8c-0.5-0.8-1-1.9-1.4-3.3c-0.3,1.2-0.6,2-1,2.5c-0.2,0.4-0.7,0.9-1.5,1.6
		s-1.4,1.2-1.8,1.5l-8.6,5.2l-0.7-10.7l9.1-5.7c1.2-0.7,1.9-1.3,2.3-1.9c0.4-0.7,0.6-1.5,0.6-2.4l-0.1-0.8l-12.5,0.8L508.6,270.9z
		 M527.5,279.3l0.3,4c0,0.4,0.2,1.3,0.6,2.5c0.2,0.6,0.5,1.1,1.1,1.5c0.5,0.4,1.2,0.5,1.8,0.5c1-0.1,1.7-0.4,2.2-1.1
		c0.5-0.7,0.7-1.9,0.6-3.6l-0.3-4.2L527.5,279.3z"/>
	<path class="st3" d="M540.9,305.7l-2.1,25.4l-6.6-0.5l1.3-15.9l-4.9-0.4l-1.2,14.8l-6.3-0.5l1.2-14.8l-6-0.5l-1.4,16.4l-6.9-0.6
		l2.1-25.9L540.9,305.7z"/>
	<path class="st3" d="M537.4,340.3l-2.1,8.6l-19.3,7.3l16.6,4l-2.1,8.7l-29.9-7.2l2.1-8.7l19.1-7.3l-16.4-4l2.1-8.7L537.4,340.3z"/>
	<path class="st3" d="M508.9,369l-2.9,8.6c-1.4-0.4-2.6-0.4-3.6-0.2c-1.5,0.4-2.6,1.5-3.3,3.2c-0.5,1.3-0.6,2.3-0.3,3.3
		c0.3,0.9,0.9,1.5,1.6,1.9c0.7,0.3,1.5,0.2,2.4-0.2s2-1.7,3.5-3.8c2.5-3.5,4.7-5.8,6.8-6.8c2.1-1.1,4.3-1.1,6.5-0.2
		c1.5,0.6,2.7,1.6,3.6,3c1,1.4,1.5,3.1,1.5,5.1c0,2-0.5,4.5-1.8,7.5c-1.5,3.6-3.3,6.1-5.4,7.5c-2.1,1.4-4.8,1.6-7.9,0.8l2.9-8.5
		c1.4,0.3,2.5,0.2,3.4-0.2s1.6-1.3,2.1-2.6c0.4-1,0.5-1.9,0.3-2.6c-0.2-0.7-0.6-1.2-1.3-1.4c-0.5-0.2-0.9-0.1-1.5,0.1
		c-0.5,0.3-1.3,1.1-2.3,2.5c-2.4,3.5-4.4,5.9-5.9,7.2c-1.5,1.3-3.1,2.1-4.6,2.3c-1.6,0.2-3.1,0-4.7-0.6c-1.8-0.7-3.3-1.9-4.4-3.6
		c-1.1-1.6-1.7-3.5-1.8-5.7c-0.1-2.1,0.5-4.6,1.6-7.3c2-4.8,4.3-7.8,6.9-8.9C503.1,368.1,505.9,368,508.9,369z"/>
	<path class="st3" d="M513.7,409.8l-12.9,22l-5.7-3.3l8.1-13.8l-4.2-2.5l-7.5,12.8l-5.4-3.2l7.5-12.8l-5.2-3.1l-8.3,14.2l-6-3.5
		l13.1-22.4L513.7,409.8z"/>
</g>
<circle class="st4" cx="297.6" cy="294.1" r="185.2"/>
<g>
	<path class="st5" d="M447.6,479.1c-4.4,0.7-8.7,0.4-12.3-2.6c1.9-3.8,5.3-3.9,8.6-2.8c2.6,0.9,4.9,2.9,7.8,3.4
		c-0.4,0.4-0.7,0.8-1.1,1.2C449.5,478.1,448.5,478.5,447.6,479.1z"/>
	<path class="st6" d="M451.7,477.1c-2.9-0.6-5.1-2.5-7.8-3.4c-3.3-1.1-6.7-1-8.6,2.8c-2-1.9-4-3.8-6-5.7c2.6-2,2.2-5.2,2.8-7.9
		c0.6-2.8-3.9-5.8-6.5-4.9c0.4-4.1,2.3-7.5,4.8-10.6c4.9,2.6,9.2,2.7,12.2-2.8c0.6,0.2,1.2,0.1,1.6-0.5c0,0-0.2-0.3-0.3-0.3
		c-0.7-0.2-1.2,0-1.3,0.8c-1.2-0.7-2.3-1.3-0.7-2.7c0,0-0.1,0.1-0.1,0.1c1.2,0.2,2.4,0.4,3.6,0.6c2.2,0.1,4.4,0.1,6.4,1.1
		c0.1,0.4,0.1,0.8,0.2,1.1c-0.4,0-0.8,0.1-1.2,0.1c-2,0.5-0.7,1.2-0.1,1.8c1.2,4,3.4,6.5,7.9,6.1l-0.1,0c0.2,0.4,0.4,0.7,0.6,1.1
		c0.2-0.4,0.4-0.8,0.6-1.2c0.4-0.4,0.8-0.8,1.2-1.2c2.2,3.4,2.7,7.2,2.6,11.1c-5.8-1-9.8,5.4-7.5,12
		C454.5,475.4,453.1,476.3,451.7,477.1z M449.6,461.4c0.9-1.4,1.2-3,0.8-4.7c-0.5-1.6-1.1-3.5-3.1-3c-1.8,0.4-4.4-3-5.5,1
		c-2.6,0.3-2.4,2.7-3.5,4.2c-1.4,2-0.2,3.3,1,4.8c1.4,1.7,3.7,3.1,5.4,2.4C446.6,465.3,450.2,465.2,449.6,461.4z"/>
	<path class="st7" d="M455.9,474.6c-2.3-6.6,1.7-13,7.5-12C463.6,468.2,460.8,472,455.9,474.6z"/>
	<path class="st7" d="M425.7,458c2.6-0.9,7.1,2.1,6.5,4.9c-0.5,2.6-0.2,5.8-2.8,7.9C426.3,467.1,424.7,462.9,425.7,458z"/>
	<path class="st7" d="M442.7,444.7c-3,5.5-7.3,5.4-12.2,2.8c2.9-3.8,6.4-6.2,11.4-5.6C440.3,443.3,441.5,443.9,442.7,444.7
		L442.7,444.7z"/>
	<path class="st7" d="M460.9,451.4c-0.4,0.4-0.8,0.8-1.2,1.2c-0.4,0-0.8,0.1-1.1,0.1c0,0,0.1,0,0.1,0c-2-2.7-6.3-3.5-6.4-7.7
		c0.2-0.2,0.4-0.4,0.5-0.6C457,445,459.2,448,460.9,451.4z"/>
	<path class="st7" d="M451.9,444.7c-0.1-0.4-0.1-0.8-0.2-1.1c0.4,0.3,0.7,0.6,1.1,0.9c-0.2,0.2-0.4,0.4-0.5,0.6
		C452.2,445.1,451.9,444.7,451.9,444.7z"/>
	<path class="st7" d="M449.6,461.4c0.5,3.8-3,3.9-5,4.7c-1.8,0.7-4-0.6-5.4-2.4c-1.2-1.4-2.3-2.7-1-4.8c1-1.5,0.9-4,3.5-4.2
		C445.6,455.5,449.3,456.5,449.6,461.4z"/>
	<path class="st8" d="M449.6,461.4c-0.3-4.9-4-5.9-7.9-6.7c1.1-4,3.7-0.6,5.5-1c2.1-0.4,2.7,1.5,3.1,3
		C450.9,458.4,450.6,460,449.6,461.4z"/>
	<path class="st5" d="M451.9,444.7c0,0,0.3,0.3,0.3,0.3c0.1,4.2,4.3,5.1,6.4,7.7c-4.5,0.4-6.8-2.1-7.9-6.1c0-0.6,0.1-1.2,0.1-1.8
		C451.1,444.8,451.5,444.8,451.9,444.7z"/>
	<path class="st7" d="M450.7,444.8c0,0.6-0.1,1.2-0.1,1.8C450,446,448.7,445.3,450.7,444.8z"/>
	<path class="st7" d="M442.6,444.6c0.1-0.8,0.6-1,1.3-0.8c0.1,0,0.3,0.3,0.3,0.3C443.9,444.8,443.3,444.8,442.6,444.6
		C442.7,444.7,442.6,444.6,442.6,444.6z"/>
	<path class="st5" d="M458.5,452.7c0.4,0,0.8-0.1,1.1-0.1c-0.2,0.4-0.4,0.8-0.6,1.2C458.9,453.5,458.7,453.1,458.5,452.7z"/>
</g>
<g>
	<path class="st6" d="M152.1,442.1c2.3,0.2,4.7,0.3,7,0.5c-0.1,3.3,3.1,5.2,3.5,8.5c0.3,2,3.8,1.6,5.8,2.7c1.8,1,0.7-2.2,2.2-2.3
		c0.7,1.7,1.4,3.4,2.2,5.1c-0.4,1.7,0.9,4.7-0.5,5.1c-7.2,1.9-7.2,7.1-6.7,12.8c-0.1,0.1-0.2,0.3-0.1,0.5c-0.9,0.2-1.7,0.4-2.1,1.3
		c0,0,0.2,0,0.2,0c-3.8,1.8-6.4-1-9.3-2.3c-3.7-1.6-6.7-0.8-9,2.5c-2.2-1.9-4.4-3.9-6.6-5.8c1.9-0.4,2.1-1.7,1.7-3.3
		c2.9-3.5,0.5-6.4-1.2-9.3c-1.3-2.2-2.4,0.7-3.7,0.2c0.6-4.1,1.8-7.9,5-10.8c2.4,4.5,6.2,2.4,8.4,0.6
		C150,446.9,155.7,446.4,152.1,442.1z M158.5,464.3c0.8,0.1,1.3-0.3,1.6-1.1c1.3-2.2-1.5-4-0.7-6.1c-0.4-5.8-4.6-3.5-7.7-3.6
		c-2,1.6-3.8,3.2-3.3,6.1c-1.7,1-1.3,2,0,3.1c0,0.4,0.2,0.6,0.6,0.6c0.5,0.3,1,0.7,1.5,1l-0.1,0
		C153.1,468.7,155.8,466.5,158.5,464.3L158.5,464.3z"/>
	<path class="st5" d="M145.1,476.3c2.3-3.4,5.3-4.2,9-2.5c3,1.3,5.6,4.1,9.3,2.3C157.4,479,151.3,481.3,145.1,476.3z"/>
	<path class="st7" d="M152.1,442.1c3.6,4.4-2.1,4.9-3.3,5.9c-2.2,1.8-6,3.9-8.4-0.6C143.2,443.1,147.2,441.5,152.1,442.1z"/>
	<path class="st7" d="M165.5,474.2c-0.5-5.6-0.5-10.9,6.7-12.8c1.4-0.4,0.1-3.3,0.5-5.1C174.9,464.2,172.4,470.1,165.5,474.2z"/>
	<path class="st7" d="M170.5,451.3c-1.5,0.1-0.4,3.3-2.2,2.3c-2-1.1-5.5-0.6-5.8-2.7c-0.4-3.3-3.6-5.2-3.5-8.5
		C164.1,443.9,168.3,446.3,170.5,451.3z"/>
	<path class="st7" d="M135.4,458.1c1.3,0.5,2.5-2.5,3.7-0.2c1.6,2.9,4.1,5.8,1.2,9.3c-4.7-0.1-2.8-5.2-5.2-7.1
		C135.2,459.5,135.3,458.8,135.4,458.1z"/>
	<path class="st5" d="M135.1,460.1c2.4,1.9,0.4,6.9,5.2,7.1c0.4,1.6,0.2,2.9-1.7,3.3C136,467.5,133.2,464.6,135.1,460.1z"/>
	<path class="st7" d="M163.3,476c0.4-0.9,1.2-1.1,2.1-1.3C165.1,475.8,164.3,476.1,163.3,476z"/>
	<path class="st7" d="M148.4,459.6c-0.5-2.9,1.3-4.6,3.3-6.1c1,4.5,5.5,1.6,7.7,3.6c-0.8,2.2,2,3.9,0.7,6.1
		c-0.7,0.1-1.3,0.3-1.6,1.1c0,0,0.1,0,0.1,0c-2.7,0-5.4,0-8.2,0c0,0,0.1,0,0.1,0c-0.2-0.8-0.8-1-1.5-1c-0.4,0-0.6-0.2-0.6-0.6
		C148.4,461.6,148.4,460.6,148.4,459.6z"/>
	<path class="st8" d="M159.3,457.1c-2.2-2-6.6,0.8-7.7-3.6C154.7,453.6,159,451.2,159.3,457.1z"/>
	<path class="st5" d="M150.4,464.2c2.7,0,5.4,0,8.2,0C155.8,466.5,153.1,468.7,150.4,464.2z"/>
	<path class="st5" d="M148.4,459.6c0,1,0,2,0,3.1C147.1,461.6,146.7,460.6,148.4,459.6z"/>
	<path class="st5" d="M148.9,463.2c0.7,0.1,1.3,0.2,1.5,1C149.9,463.9,149.4,463.6,148.9,463.2z"/>
	<path class="st5" d="M158.5,464.3c0.2-0.8,0.9-0.9,1.6-1.1C159.8,464,159.3,464.3,158.5,464.3z"/>
</g>
<circle class="st9" cx="297.6" cy="293.7" r="176.1"/>
<g>
	<path class="st10" d="M408.5,308.9c7,1.7,14,3.5,20.2,7.4c3.4,2.2,6.4,4.3,1.4,8.2c-2.8,2.2-1.8,4.5,0.6,6.5
		c2.6,2.2,5.6,4.5,0.8,7.6c-0.9,0.6-0.8,1.6-0.1,2.8c2.2,3.9-0.4,5-3.5,5.6c-2.6,0.5-5.2,0.9-7.8,1.3c-2.5,0.4-4.1,1.9-5,4.2
		c-4.3,10.7-9.7,14.1-21,12.4c-9.1-1.4-18.3-1.6-27.5-1.6c-7.8,0.1-15.6,0.2-23,2.9c-1.6-4.6-3.7-8.9-6.5-12.9
		c-5.1-7.3-10.7-14-19.9-16.2c-10.5-7.1-22.2-8.4-34.4-7c-0.9,0.1-1.8,0.1-2.7,0.2c-9,0.3-16.6,3.5-22.7,10.2
		c-0.5,0.4-1,0.8-1.5,1.2c-9.1,8.8-14.4,19.5-16.6,31.9c-19.5,0.7-37.5-5.3-55.1-12.6c-7.5-3.1-15.7-3.5-23.3-6.5
		c-2.1-0.8-4.1-1.9-5.9-3.2c-5.9-4.5-6.6-10.5-1.4-15.7c2.7-2.7,5.9-4.9,8.9-7.4c4.9-2,9.8-3.9,14.6-6.1c1.9-0.9,4.1-2.4,3.8-4.7
		c-0.8-6,3.3-6.8,7.4-7.3c3.5-0.4,7.1-0.6,10.6-0.2c11.3,1.4,22.6,1,33.9,1.3c6.1,0.2,11.5-1,16.1-5.1c1.5-0.9,3.5-0.3,4.8-1.8
		c10.7-2.7,21.1,0.8,31.6,1.7c9.6,0.8,19.2,3.6,28-3c2-1.5,4.6-1.5,7.1-1.6c7.3-0.2,14.3,1.8,21.5,2.9c6.3,1,12.6,3.3,18.8,1.9
		c6.4-1.5,12.8-1.8,18.9-0.2C389.1,308.7,398.8,308.5,408.5,308.9z"/>
	<path class="st11" d="M282.8,330.1c12.2-1.4,23.9-0.1,34.4,7c-2.2,0.3-4.4,0.5-6.6,0.8c-2.2-0.1-3,0.3-1.4,2.6
		c2.9,4,4.8,8.6,6.5,13.2c0.6,1.6,1.1,3.2,3.4,3.4c4.9,0.5,9.5,2.2,13.7,5.1c3.2,2.3,2.3-0.7,2.6-2.1c1.7-2-0.5-4.9,1.6-6.7
		c2.7,4,4.9,8.3,6.5,12.9c0.7,3.2,1.4,6.4,2.1,9.6c0,5.3-0.1,10.6-0.1,15.8c-0.1,0.6-0.3,1.2-0.4,1.8c-2.9-2.4-1.7-7.2-6-9.6
		c-2.1,5.4-6.4,8.9-10.5,12.7c-1,0.4-2.3,0.7-2,2.1c1.2,6.7-2.4,12.5-3.6,18.8c-0.8,0.4-1.7,0.8-2.5,1.2c-0.9,0-1.9-0.3-2.6,0.1
		c-6.5,2.7-13,5.4-20.2,3.1c-0.9-0.3-1.6,0.4-2.1,1.3c-6-5.1-12.5-6.1-19.6-2.4c-0.1,0.1-0.3,0-0.5-0.1c0-2.6-2-2.8-3.8-3.6
		c-7.3-3.2-13.4-7.5-14.7-16.2c-0.2-1.3-0.3-3.3-2.5-3.5c0.2-3.4,1.7-6.4,2.8-9.5c3.4-1.7,7.7-0.1,12.3-2.8
		c-6.3-1.8-11.4-2-16.5-2.5c-2.4-2.4-3.6-5.4-4.8-8.5c-0.9-2.4-1.9-2.6-3.6-0.6c-2,2.6-4.2,5-6.3,7.5c0.3-2.3,0.5-4.7,0.8-7
		c2.1-12.4,7.5-23.1,16.6-31.9c0.1,2.4,0.2,4.9,0.3,7.3c0.1,1.7,0.5,2.8,2.5,1.9c1.8-0.9,4.4,0,5.4-2.5c2.1-0.1,4.3-0.5,6.3-0.2
		c5.3,0.7,8.6-1.5,10.6-6.2l-0.1-0.2c1.1,0.4,1.3-0.2,1.1-1.1l0,0c0.4,0,0.8-0.1,1.3-0.1C289.8,334.9,289.8,334.9,282.8,330.1z
		 M311,387.5c0.2-6.2-1-12.2-2.3-18.2c-0.5-2.3-1.7-3.6-4.1-4.1c-5.7-1.3-11.4-2.1-17.2-2.5c-2.2-0.2-3.9,0.3-4.9,2.3
		c-2.6,5.4-6.4,10.3-7.9,16.2c-0.6,1.9-2,3.5,0.2,5.6c4.4,4.3,8.6,8.7,13.7,12.3c1,0.7,1.8,1.7,3.3,1.1c6.7-2.8,13.1-5.9,19-10.2
		C311.5,389.2,311.4,388.4,311,387.5z M285.2,360.5c-2-3.7-3.1-8.1-7.2-10.4C279.4,354.2,280,358.9,285.2,360.5z"/>
	<path class="st12" d="M282.5,219.7c0.1-7.7,1.2-15.3,4.4-22.4c8.4,7.6,18.9,11.3,28.7,16.4c1.6,0.9,3.3,2.7,5.6,1.3
		c0.8,0.4,1.6,0.7,2.4,1.1c1.8,1.4,3.6,2.8,3.2,5.5c-1.6,1.6-3.6,2.5-5.7,3.3c-4.4,1.5-9.3,1.6-13.3,4.2c-1.3,0.8-2.6,1.8-4,2.3
		c-4,1.4-5.3,4-3.9,9.1c1.3-3.2,3.6-2.6,5.6-3c1.9,3-0.6,5.2-1.5,7.6c-0.4,1.2,0,3.4,0.7,2.6c3-3.2,7.8-1.4,10.6-4.6
		c0.8-0.1,1.6-0.1,2.3-0.2c1.8,1.3,3.6,0.7,5.5,0.3c3.2-0.8,6.4-0.7,9.2,1c6.1,3.7,12.2,3.4,18.5,1c3.3-0.2,7.1-1.3,9.8,0.4
		c8.2,5.2,18.5,4.6,26.6,9.8c-21.9,31.3-71.2,30.2-94.2-2.3c-0.9-1.3-1.8-2.6-2.7-3.9c-1.7-3.6-3.3-7.1-5-10.7
		c-2.7-3.5-1.3-7.8-2.6-11.6C282.6,224.6,282.5,222.2,282.5,219.7z"/>
	<path class="st5" d="M387.1,255.5c-8.1-5.2-18.4-4.6-26.6-9.8c-2.8-1.8-6.5-0.6-9.8-0.4c-3.3,0-6.6-0.2-9.9,0.1
		c-4.1,0.4-4.8-1.4-3.7-4.8c-0.8-2.1,0.7-3.8,0.8-5.8c3.8,1.4,7.5,3.7,11.6,0.2c-1.1-0.6-1.9-1.1-2.7-1.6c0.4-0.5,0.7-1.5,1.1-1.6
		c2.4-0.1,4.8-0.1,7.2,0c1.4,0.1,3,0.8,3,2.4c0,1.8-1.7,1.8-3.1,2.2c-1.9,0.5-4.1-0.7-6.6,1.4c5,2.1,10.4,1.3,13.9,5.2
		c4.2,5.9,10.1,5.9,16.3,4.8c2.4-3,5.9-0.4,8.6-1.7c2.6-1.2,4.1-2.7,2.2-5.4c-3.8-5.3-3.3-6.8,2.8-7.7c-2.5-2.7-5.5-5.2-9.3-4.6
		c-6.1,1-10.6-4.6-16.6-3.2c-0.8,0.2-1.1-1.4-1.7-1.7c-4.8-2.6-7.3-7.9-12.8-10.2c-5.3-2.2-9.3,1-13.9,0.9c0.1-0.3,0.2-0.6,0.2-1
		c1.4-0.9,3.6-1.2,3.4-3.5c-0.1-2-2-2.5-3.4-2.9c-2-0.6-3.2-2-4.7-3.3c-1.7-1.6-4-5-4.7-4.9c-7.1,1-12.2-7-19.6-4
		c-0.9,0.4-2.3-0.5-3.5-0.9c-2.8-0.8-5.6-1.6-8.4-2.5c4.2,3.7-0.7,6.9-0.1,10.1c4.2,4.9,10.6,6,15.9,9.1c0.6,0.3,0.7-0.9,0.8-1.6
		c1.7-0.3,4,0,5-1c3.1-2.9,5.8-2,8.9-0.5c1.3,0.6,3,0.5,2.2,2.6c-0.7,1.8-2.1,2.4-3.8,1.3c-2.8-1.9-5.7-1.5-8.9-1
		c1.1,2,4.1,1.9,3.6,4.6c-2.3,1.4-3.9-0.5-5.6-1.3c-9.7-5.1-20.3-8.8-28.7-16.4c-6.9-7-12.8-14.4-12.5-25c0.1-1.8,0.2-3.5,1.5-4.8
		c0.3,0.1,0.5,0.2,0.8,0.2c0,3.5,0,7.1,0,10.6c3.1-3.3,1.6-6.7,1-10.1c1.6,0.1,2.1-1.5,3.2-2c1.6,0.7,1,3.3,3.1,3.6
		c-0.2,0.6-0.5,1.2-0.7,1.9c-0.5,0.4-0.9,0.8-1.4,1.2c-0.3-0.4,0.5-1.4-0.7-1.1c0.3,0.4,0.5,0.7,0.8,1.1c0.9,3.6,1.3,3.9,2,3.2
		c2.8-3,3.1,1.1,4.6,1.6c0.7-1.3,1.4-2.5,2.1-3.7c1.1,0.7,2.1,1.4,3.2,2.1c-1.9,2.2-0.6,2.8,1.5,3.3c5,1.1,10,2.1,14.7,4.1
		c0,0.6-0.1,1.7,0.1,1.8c1.3,0.5,1.9-0.9,2.8-1.4c11.8,4.1,22.3,10.6,31.9,18.3c5.8,4.7,11.3,8,18.8,6.9c1.2-0.2,2.4,0.1,3.7,0.2
		c0.1,1.1,0.8,1.6,1.8,1.9c-0.3,1-1.9,2.7,0,2.8c5.7,0.3,7,4.9,9.5,8.4c2.5,3.6,5.8,3.5,9.4,1.7c4.1,0.3,7.7,2,11.3,3.7
		c1.2,0.4,2.6,0.6,2.7,2.3c-1.9-0.5-3.8-0.8-4.8,1.8c2.6,1.4,5.3,2.2,9.1,2.4c-1.6-2.5-3.9-2.4-4.4-4.3c3.8,0.7,6.7,3,9.7,5.2
		c0,0-0.1,0.1-0.1,0.1c-0.5,0.2-1.3-0.2-1.3,0.7c0,0.1,0.8,0.2,1.3,0.3l0,0c1,3.5,1.4,3.7,5.4,3c4.3,1.1,7.7,3.9,11.4,6.2
		c-1.4-1.1-2.9-1.1-4.4-0.4c-0.4,0.2-0.6,1.2-0.6,1.8c0,0.3,0.8,0.9,1.1,0.8c3.4-1.5,6.1,2.7,9.4,1.1c1.7,3.2-1.1,2.2-2.4,2.4
		c-2.7,0.4-5.8-0.8-9.1,2.2c7.5-0.6,13.8-1.1,20.2-1.6c1.6,0.6,3.8-0.5,5.1,1.9c-1.6,0.7-3,1.3-4.4,2c1,0.9,2.9-0.4,2.7,1.9
		c-4.3,0.3-8.8-0.1-13,1.2c-2.2,0.1-4.1,0.9-5.2,3c-10.4,1.4-20.9,3.5-30.2-3.2C394.3,256.5,391,255.3,387.1,255.5z M345,238.4
		c0-1-0.8-0.9-1.4-0.9c-0.5,0-0.9,0.3-1.4,0.4c0.4,0.5,0.7,1.2,1.3,1.4C344.1,239.7,344.7,239.2,345,238.4z M315.8,186.9
		c0.3-0.9-0.3-1.2-0.7-1.2c-0.4,0-0.9,0.4-1,0.8c-0.1,0.2,0.4,0.9,0.7,0.9C315.2,187.4,315.6,187,315.8,186.9z M347.6,238.1
		l-0.3-0.2l0,0.3L347.6,238.1z M407.8,235.3l0.2-0.4l-0.4,0L407.8,235.3z"/>
	<path class="st12" d="M367.3,209.3c-1.2-0.1-2.5-0.3-3.7-0.2c-7.5,1.1-13-2.2-18.8-6.9c-9.6-7.7-20.1-14.3-31.9-18.3
		c-0.7-0.2-1.5-0.3-2.2-0.4c0.1-3.3-2-4.3-4.8-4.8c-1.8-0.3-4.3,0.4-4.8-2.5c13.1-10.5,27.7-16.2,44.8-15.1
		c24.1,1.5,47.7,21.7,51.9,44.9c-3-2.4-7-2.7-10.3-3.8c-3.9-1.3-9.6-2.9-13.3,0.9C371.9,205.3,369.6,207.2,367.3,209.3z"/>
	<path class="st13" d="M224.6,268.4c-1.4-0.7-1.7-3.9-4.3-1.9c-0.2-5.7,2.6-6,7.3-3.1c-0.9-5.5-5.4-4.9-8.2-5.7
		c-1.6-0.5-0.8,2.4-0.8,3.9c-0.9,3-2.6,4.4-5.9,3.2c-3.1-1.1-2.8,0.6-1.9,2.6c-3.1,0.6-3.5,3.9-5.7,5.6c-6.2,4.6-10.2,3.6-12.3-3.9
		c-0.9-3.1-3.5-3-5.8-3.6c-1.7-1.5-0.7-3.6-1-5.3c2,0.7,4.1,0.6,5.1-1.4c1.1-2.1,3.1-2.1,4.8-2.8c0.3,1.6,0.5,3.3,0.8,4.9
		c-0.1,0.3-0.3,0.5-0.4,0.8c0.2-0.1,0.5-0.3,0.7-0.4c2.6-0.9,1.9-3.7,2.9-5.5c0.8-1.5-1.2-0.6-1.9-0.9c0.2-3.6-1.1-4.8-4.7-3.6
		c-1.2,0.4-3.2,1.8-4.3-0.2c-1-1.8,0.7-3.3,1.7-4c2.7-2,2.8-4.9,3.4-7.7c0.5,4.1,3.1,6.7,6.9,5.8c4-1.1,2.2-4.7,1.3-7.4
		c-0.2-0.7-0.3-1.4-0.5-2c1.2,0,2.4-0.1,3.6-0.1c-0.2,1.1-0.1,2.9,0.8,2.6c3.6-1,5.9,1.5,8.8,2.3c2.1,0.6,5.6,1.6,6.8-3
		c-8,0.8-11.7-5.4-16.7-9.4c1.8-7.8-0.6-13.6-7.4-16.7c0.7,1.5-1.1,3.3,0.8,4.3c5,2.5,3.4,5.4,0.6,8.3c-3.2-4.5-4.9-4.5-7.6,0
		c-0.2,0.3-0.3,0.6-0.5,0.9c-0.1,0.2-0.2,0.4-0.4,0.6c-0.4-0.1-0.8-0.2-1.2-0.2l-0.2-0.2c-1.5-2.5-2.7-3.2-4.2,0.1
		c-0.9,2.1-0.1,4.6-1.7,6.5c-0.4-1-1-1.9-1.2-2.9c-0.3-1.4-0.5-2.8-2.4-2.7c-2.4,0.2-1.7,2.1-2,3.5c-0.9,3.9,3,3.2,4.5,4.8
		c0.1,0.3,0.2,0.7,0.2,1c-3.1-0.2-4,1.4-3.3,4.2c-2.4,3.1,0.4,3.6,2.2,4.1c3.3,0.9,5,3,4.9,6.3c-0.1,3.3-2.3,3.6-5.1,3.4
		c-1-0.1-1.1,1.2-0.9,2.1c-3.9,1.1-4.5-0.3-3.6-4c0.4-1.5,3.6-4.4-1-5.3c0.6-2.7-4.7-4.5-1.5-7.4c3.2-2.8,2.3-6.6,1.9-9.5
		c-0.4-2.7,0.8-6.5-2.5-8.5c2.7-4.3,6.2-6.5,11.4-4.3c1.2,0.5,2.8,0.1,4.2,0.2c2.3,0.1,2.6-0.8,1.7-2.9c-3.9-9-2.9-12.8,4.6-19.5
		c0.7-0.6,1.6-1,1.5-1.9c-0.5-5.3,3.6-5.8,7-6.4c2-0.4,3.7-2.8,4.1-2.6c5.8,2.8,4.9-4.1,7.9-5.6c2.2-1.1,3.4-1.4,5.4-0.6
		c0,0,0.4,0.3,0.4,0.3c3.7,3.4,2.3,5.7-1.6,7.5c-0.2,0.1-0.3,0.6-0.4,0.9c-3.6,3.5-8.5,4.2-13,5.5c-0.6-1.1,0.8-2.7-0.4-3.3
		c-1.4-0.7-1.7,1.3-2.7,1.8c-2.3,1.3-2.4,3.5-2.8,5.7c-3.7,2.1-1.6,7.5-5.4,9.5c-1.4-1-1-3.3-3-4.3c-1.3,1.8-0.8,4.2-2.4,6.1
		c-1.3,1.6,0.4,3.8,2.3,4.5c2.4,0.9,2.2-1.5,2.8-2.7c2.9,0.1,6.3,0.8,6.8-3.6c1.6-0.2,3.4-0.1,3.5-2.4c6,0.8,6.4,1.4,4.3,6.7
		c-0.3,0.9,0,2,0,3.1c-2.7,5-2.7,5,2.8,4.9c0.5,0,1,0,1.5,0c2.2,2.7,4.1,1,5.6-0.6c2.4-2.7,5.3-2,8.2-1.4c2.3,0.5,2.4,2.6,2.2,4.2
		c-0.3,1.6-1.7,0.7-3,0.4c-1.8-0.4-3.8,0.7-5.7-0.1c-0.8-0.3-1.8,0.2-1.9,1.3c-0.2,1.4,0.7,1.7,1.9,1.9c3.1,0.5,6.2,1.1,9.3,1.5
		c2.7,0.4,5,2.5,3.9,4.4c-1.2,2.1-2,5.8-5,5.8c-1.7,0-3.4-1.5-3.8,1.1c-0.4,3,2.1,3.2,4.3,3.4c-0.4,0.6-0.7,1.1-1.1,1.7
		c-1.4,0.6-2.9-1.6-4.3,0.1l-0.1,0.1c-2,1.6-2.1,1.8-0.7,2.5c1.8,0.9,3,2,3.9,4.4c-2.6-1.3-4.6-2.6-6.8-3.3
		c-0.9-0.3-3.1-2.2-3.5,0.9c-0.1,0.3-0.3,0.5-0.4,0.8c-1.3,1.1-2.5,2.3-3.8,3.4c-1.8,1.6-1.7,3.8-1.2,5.8c0.5,2.2,2.5,1.1,3.9,1.2
		c0.2,0,0.3-0.1,0.5-0.1c-0.1-0.2-0.1-0.5-0.2-0.7c-1.3-3.3-1.5-6.1,3-6.7c1.4,0.8,2.6,1.8,4.3,0.8c2.2-1.3,3.9,0.1,4.8,1.8
		c2.9,5.6,5.7,11.4,2.9,18C229.4,267.4,227,267.9,224.6,268.4z M216,228.2c-0.6-0.1-1.1-0.1-1.7-0.2c0.1-0.7,0.1-1.4,0.2-2.2
		c0.7-0.9,2.6-1.7,1.7-2.7c-0.9-1-2.9-0.8-4.2,0.6c-1.1,0.9-3.4,0.8-3.2,2.7c0.1,2.3,2.5,2.3,4.2,2.9c0.3,1.1-0.6,3.6,2.1,1.8
		c2.3,0.9,5.1,4.7,6.4-1c-0.4-1.7-0.5-3.6-2.6-4c-1-0.2-1.4,0.8-1.6,1.7C216.8,228,216.4,228.1,216,228.2z"/>
	<path class="st14" d="M206.8,191.4c4.6-1.4,9.4-2,13-5.5c2.6,0.3,5.3,4.2,7.9-0.1c1.1,0,2.2,0.1,3.4,0.1c1.2,0.5,0.7-0.6,1-1
		c2.1-0.8,4,0.8,4.3,2c1.4,6,5.2,1.3,7.7,2.3c-5.9-3.4-6.3-3.8-5.5-8.6c4.4,2.5,11.2,1.4,12.7,8.3c-0.1,0.8-0.1,1.7-0.2,2.5
		c-0.8,0.8-1,1.8-1,2.9c-0.2,0.9-2.4-0.1-1.7,1.7c0.9,2.4,2.9,2.4,5,2.3c-0.1,1.6-3.9,0.6-2.4,3c0.9,1.5,2.8,3.9,4.4,3.1
		c3-1.6,5.5,0.8,8.2,0.1c0.9-0.2,2.2-0.8,2.4,0.9c0.2,1.5-0.9,2.3-2.1,2.6c-1.2,0.2-2.5,0.2-3.7-0.1c-1.8-0.4-3.7-1.6-4.9,1.1
		c-0.7,1.4-1.6,2.7-0.4,4.4c1.7,2.4,3.7,0.6,5.6,0.8c4.7,0.5,9.2-1.5,13.9-0.6c0.8,1.2,1.9,1.9,3.4,2.2c-0.3,0.6-0.6,1.2-0.9,1.8
		c-0.6,0.2-1.2,0.4-1.8,0.6c-2.3-0.5-4.5-2.6-7.4-0.5c2.7,1,5.1,1.8,7.5,2.6c2,1.9,7.5,1.8,4,6.9c-4.4,1.7-0.2,5.1-1.4,7.4
		c-5,7.4-7.4,8.3-15.1,5.4c2.3-0.4,4.9,0.7,7-1.2c-1.8-1.8-3.4-3-6.1-1.7c-0.6,0.3-2.2-2.2-3.4-0.3c-1,1.7,1.2,2.2,1.9,3.3
		c-1.1,0-2.2,0-3.3,0c-2.2,0-4.5-0.8-6.5,0.7c-0.3,0.1-0.6,0.1-0.9,0.1c-0.4-1.2,0.4-3.7-1.1-3.5c-3.1,0.4-7-0.9-9.1,3.3
		c-0.9-2.5-0.8-4.8-2.7-6.7c-0.8,1.6-1.4,2.9-2,4.1c-2.1,0.4-4.1,0.8-6.2,1.2c-2.2-0.2-4.7-0.4-4.3-3.4c0.4-2.6,2.1-1.1,3.8-1.1
		c2.9,0,3.8-3.7,5-5.8c1.1-1.9-1.2-4-3.9-4.4c-3.1-0.4-6.2-1.1-9.3-1.5c-1.2-0.2-2.1-0.5-1.9-1.9c0.2-1.1,1.1-1.6,1.9-1.3
		c2,0.8,3.9-0.3,5.7,0.1c1.2,0.3,2.7,1.2,3-0.4c0.3-1.5,0.1-3.7-2.2-4.2c-2.9-0.6-5.7-1.2-8.2,1.4c-1.5,1.7-3.4,3.3-5.6,0.6
		c2.4-1.7,4-3.7,3.3-7c-2.9-0.1-4.9,2.5-7.7,2c0-1-0.3-2.2,0-3.1c2.1-5.3,1.7-6-4.3-6.7c0-0.3-0.1-0.6-0.1-0.8
		c1.4-2.8,3.3-5.3,6.8-7.1c-2.2-0.8-3.8-1.3-5.4-1.9C206.8,192.3,206.8,191.8,206.8,191.4z M220.4,202.7c1,0.4,2.1,0.8,3.1,1.2
		c0.3,0.6,0.6,1.3,0.8,1.9c0.5,2.2,1.8,4.4,4,3.8c2.9-0.8,0.2-2.7,0-4.1c0-0.5,0-1,0.2-1.4c1.1-4,0.6-4.5-3.8-3.6
		c-0.4-0.3-0.9-0.6-1.3-0.9c0.5-2.5-0.9-5.1,0.7-7.6c0.7-1.1-0.5-2.7-2.2-2.9c-0.5-0.1-1.2-0.4-1.4,0.7c-0.7,3.1-0.7,3.1-3.9,2.6
		c-1.2-0.2-2.5-0.5-2.8,1.4c2,1.1,4.7-0.8,6.3,1.7c-0.7,1.3-1.4,2.6-2.1,3.9c-1.4,1-2.8,2.1-4.7,3.5
		C216,203.2,218.1,206.5,220.4,202.7z M237.1,194.3c-2.4-0.6-4,3-6.7,1.1c-0.4-0.3-1.3,0.4-1.3,1.3c0,1.1,0.9,1.8,1.7,1.5
		c4.7-1.6,8,2.3,12.2,3c0.3-6.2-1.1-8-5.4-7.3C237.4,194.1,237.2,194.2,237.1,194.3z M242.6,205.7c-0.4-0.5-0.8-1.1-1.2-1.6
		c-0.6,3.2-7,2.1-5.2,7.1c0.2,0.6,0.1,1.7-0.9,1c-1-0.7-2-1.1-2.6,0c-0.6,1.2,0.8,1.7,1.5,2.4c1,1,2,1.9,3,2.9c0.1,1,0.1,2,0.2,3
		c-0.7,3.1,1,5.6,1.9,8.4c0.7,2.4,0.4,3.1,3.3,1.5c6.7-3.9,9.9-2,11.7,6c0.2,1.1,0.4,2.4,1.8,1.8c0.9-0.4,2.2-1.2,1.1-2.8
		c-1-1.4-1.9-3.8,0.2-4.3c2.3-0.6,2-1.3,0.6-1.9c-4.7-2-3-3.8,0.1-5.4c1.4-0.8,1.7-2,1.2-3.1c-0.8-1.9-2-0.1-3.1-0.1
		c-0.7,0-1.4,0.2-2.1,0.3c-2.6-1.7-2.3-6.8-7.2-6c-0.2,2.7,1.3,4.7,2.1,6.9c-3.2,2.8-3.1-2.7-5.4-2.1c-4.4-0.5-1.9-3.2-1.7-5.2
		c1-1,1.9-2.1,2.9-3.1c1.5-0.7,2.9-1.5,5.5-2.8C246.9,207.7,246.2,203.6,242.6,205.7z M269.5,225.8c-0.3-1.7-0.4-2.9-0.8-4.1
		c-0.8-2.6-3-1.9-4.8-2c-1.2,0-2,0.6-2,1.9c0,2.4,2,1.8,3.4,2.2C266.6,224.2,267.8,225,269.5,225.8z M266.3,231
		c-1.7-0.9-1.8-2.8-2.7-3.7c-2.2-2.3-4-1.4-3.3,1.7C261,232.2,263.8,231.1,266.3,231z M215.8,207.5c0.3-0.1,0.7-0.2,0.9-0.4
		c0.1-0.2-0.1-0.6-0.1-0.8c-0.4,0.2-0.8,0.3-1.1,0.5C215.5,207,215.6,207.2,215.8,207.5z"/>
	<path class="st15" d="M408.5,308.9c-9.7-0.4-19.4-0.2-28.9-2.7c-6-1.6-12.5-1.3-18.9,0.2c-6.3,1.4-12.6-0.9-18.8-1.9
		c-7.1-1.1-14.1-3.1-21.5-2.9c-2.5,0.1-5.1,0.1-7.1,1.6c-8.8,6.6-18.4,3.8-28,3c-10.5-0.9-20.9-4.4-31.6-1.7
		c-4.2-1.9-8.5-3.2-13-1.1c-1.8-1.7-2.7-3.7-2.2-6.2c18.1-2,36.4-1.6,54.5-1.8c29.5-0.2,58.9,1.4,88.1,6.3
		C390.3,303.3,399.8,304.5,408.5,308.9z"/>
	<path class="st15" d="M248.9,306.2c-4.6,4.1-10.1,5.3-16.1,5.1c-11.3-0.3-22.6,0.1-33.9-1.3c-3.5-0.4-7.1-0.3-10.6,0.2
		c-4.1,0.5-8.2,1.3-7.4,7.3c0.3,2.3-1.9,3.8-3.8,4.7c-4.8,2.2-9.7,4.1-14.6,6.1c-3.5-1.2-6.4-3.1-7-7.1c-0.7-4.3,2.6-6.3,5.6-8.2
		c8.7-5.5,18.7-7.1,28.4-9.3c12.5-2.9,25.3-4.2,38-5.6c-0.5,3-3.9,1.4-5.1,3.2c-5.4,0.9-11,0.7-17.2,3.7c13.7,1.7,26,1.8,38.3,0.4
		C245.3,305.9,247.2,305.2,248.9,306.2z"/>
	<path class="st7" d="M238.5,297.2c-0.5,2.5,0.4,4.5,2.2,6.2c-2.6,0.1-5.3,0.1-7.9,0.3c-2.6,0.2-3.7-0.3-3-3.4
		c1.9-8.1,0.8-16.4,1.1-24.7c0.1-2-1.8-4.1,0.3-5.9c2.8-6.6,0-12.4-2.9-18c-0.9-1.7-2.5-3.1-4.8-1.8c-1.7,1-3,0-4.3-0.8
		c0-0.2,0-0.4,0.1-0.6c0.3-1.6-0.2-2.7-1.9-3.1c0.4-3.1,2.5-1.2,3.5-0.9c2.2,0.7,4.2,2,6.8,3.3c-0.8-2.4-2.1-3.5-3.9-4.4
		c-1.3-0.7-1.3-0.9,0.7-2.5c0.2,0.1,0.4,0.3,0.5,0.4c-0.1-0.2-0.3-0.4-0.4-0.6c1.4-1.7,2.9,0.5,4.3-0.1c3,1,1.4,4.5,3.4,6.1
		c-0.4,2.8,0,7.1,2,7.1c3.8,0,3-4.1,3.1-6.9c0-0.2,0-0.3,0-0.5c2.2-3.2,0.6-5.9-1.2-8.6c0.6-1.2,1.2-2.5,2-4.1
		c1.9,1.9,1.8,4.2,2.7,6.7c2-4.2,5.9-2.8,9.1-3.3c1.5-0.2,0.8,2.3,1.1,3.5c-2.3,1.5-4.6,3.1-7,4.6c-2.6,1.7-0.9,2.8,0.5,4
		c-0.4,0.4-0.8,0.7-1.1,1.1c-3.8,1.6-3.6,6.2-6.5,8.6c-3.4,3-1.9,4.9,1.6,6.2c-0.8,1.5-2.5,3.2-0.9,4.6c1.5,1.3,2.5-1,3.8-1.8
		c1-0.6,2-1.4,3-2.1c0.4,0.4,0.8,0.9,1.3,1.3c-6.5,4-8.5,9.7-7.6,17.1C238.7,288.6,238.4,292.9,238.5,297.2z"/>
	<path class="st6" d="M367.3,209.3c2.3-2.1,4.6-4,6.8-6.2c3.7-3.8,9.4-2.2,13.3-0.9c3.3,1.1,7.3,1.4,10.3,3.8
		c2.1,1.2,4.2,2.4,6.4,3.6c-2.2,1.8-4.8,2.5-7.5,2.7c-4.1-0.2-6.8,2.6-11.6,4.7c5.5,1.3,8-2.4,11.4-2.8c4.3,0.6,8.3-1.4,12.5-2
		c0,0,0,0,0,0c1.7,1.4,3.7,2.6-0.4,3.7c-3,0.8-6.2,0.9-8.9,2.7c-2.1,0.2-4.3,0.3-6.3,0.7c-3.2,0.6-6.8-1.1-9.4,2.1
		c-2.6,1-2.8-1.4-4.1-2.6c-3.1-3.1-4.4-9-10.7-7.5C368.1,210.9,367.4,210.4,367.3,209.3z"/>
	<path class="st5" d="M275.6,420.4c0.2,0,0.4,0.1,0.5,0.1c7.1-3.7,13.6-2.8,19.6,2.4c2.8,2.2,6.3,2.7,9.6,3.4
		c0.6,3.7-4.2,3.8-4.7,6.8c-10.5,2.6-20.6,1.3-30.3-3.2c0.1-2.8-2.4-5-2-7.9C271,422.8,272.9,420,275.6,420.4z"/>
	<path class="st7" d="M257.4,387.5c-1.2,3.1-2.6,6.1-2.8,9.5c-1.8,2.5-1,5.9-2.4,8.5c-5.6-2.5-8.9-6.9-10.6-12.6
		c-1.1-3.6-1.1-7.5-3.2-10.8c0.1-0.5,0.1-1,0.2-1.5c2.1-2.5,4.3-5,6.3-7.5c1.6-2,2.6-1.8,3.6,0.6c1.2,3.1,2.4,6.1,4.8,8.5
		C253.8,384.5,255.7,385.9,257.4,387.5z"/>
	<path class="st7" d="M328.6,396.4c4.1-3.8,8.4-7.3,10.5-12.7c4.3,2.4,3.1,7.1,6,9.6c-1.1,8.8-4.1,16.5-11.6,21.8
		c-3.6,0.3-5.2-1.2-5-4.9C328.8,405.6,328.6,401,328.6,396.4z"/>
	<path class="st13" d="M274.4,213.3c-4.7-0.9-9.2,1.1-13.9,0.6c-1.9-0.2-3.9,1.6-5.6-0.8c-1.2-1.7-0.2-2.9,0.4-4.4
		c1.2-2.7,3-1.5,4.9-1.1c1.2,0.3,2.5,0.3,3.7,0.1c1.2-0.2,2.3-1.1,2.1-2.6c-0.2-1.7-1.5-1.1-2.4-0.9c-2.7,0.7-5.2-1.7-8.2-0.1
		c-1.6,0.8-3.5-1.6-4.4-3.1c-1.4-2.4,2.3-1.4,2.4-3c0.6,0,1.2,0.1,1.7,0.1c0.8,0.5,1.3,1.4,1.9,2.1c1.3,1.6,2.9,3.2,5.8,2.2
		c3.2-1.1,2.7-3.8,2.4-5.5c-0.7-3.5-4.3-2.5-6.8-3.1c0-1.2,0-2.4,0-3.6c1.5-0.8,2.2,1.6,4.2,0.6c3.2-1.6,4.7,0.1,5.2,3.8
		c0.7,5.5,1,10.7-0.2,16.2c-0.5,2.4,1.7,1.4,2.7,0.5C273.3,208.8,273.8,211.1,274.4,213.3z"/>
	<path class="st14" d="M287.5,249.3c-0.4,3.2-4.5,4.9-3.6,8.7c-4.5,1.1-9,2.1-13.6,3.2c-0.7-0.2-1.4-0.4-2.1-0.6c-0.4-2-0.8-4-1.1-6
		c0.9,0.1,1.7,0,2.6,0.2c1.1,0.3,2.3,1.2,3.3-0.1c0.2-0.3,0.2-1.1-0.1-1.4c-0.9-1.1-2.2-0.7-3.4-0.8c-1.5-0.1-2.3,0.6-2.4,2.1
		c-1.2-0.1-3.6-1.9-3.6-0.1c0,6.3-2.8,1.1-4.2,1.2c0.5-1.7-1.5-3.8,0.6-5.3c3.1,0,6.2-1.3,9.3-0.2c2.3,1.1,3.6-2.2,5.1-1.6
		c4.7,1.9,8.5,0,12.4-2C286.9,247.5,287.2,248.4,287.5,249.3z"/>
	<path class="st8" d="M231.2,269.6c-2.1,1.9-0.2,4-0.3,5.9c-0.3,8.2,0.8,16.5-1.1,24.7c-0.7,3.1,0.4,3.6,3,3.4
		c2.6-0.2,5.3-0.2,7.9-0.3c4.5-2.1,8.8-0.9,13,1c-1.3,1.5-3.3,0.9-4.8,1.8c-1.7-1-3.6-0.3-5.3-0.6c-5.4-2.1-11-0.6-16.5-0.8
		c-2.6-0.1-4.5-0.3-4.5-3.4c1.2-1.9,4.6-0.3,5.1-3.2c0.1-6.7,0.1-13.4,0.4-20.1c0.1-3.7-0.8-6.9-3.3-9.7
		C227,267.9,229.4,267.4,231.2,269.6z"/>
	<path class="st8" d="M268.3,422c-0.3,2.9,2.1,5,2,7.9c-11.8-5.2-20.1-13.8-25.5-25.4c3,0,4.5,3.4,7.5,3.3
		C256.1,414.1,261.7,418.6,268.3,422z"/>
	<path class="st13" d="M238.7,265.3c-3.6-1.3-5.1-3.3-1.6-6.2c2.8-2.4,2.7-7,6.5-8.6c0.6,4.2,3,3.2,5.5,2c0.6,0,1.2,0,1.9,0.1
		c0.1,1.1,0.2,2.2,0.4,3.3c2.2,2.8,4.3,5.8,8.6,3.5c1.3-0.7,2.7-0.6,3.9,0.4c-2.2,0.1-3.5,1-3.1,3.5c-6.1-2.7-10.1,2-14.8,4.2
		c-0.4-0.4-0.8-0.9-1.3-1.3c0.4-1.6,5.7-2.4,0.9-5c-0.3-0.2-0.3-1.3-0.2-1.9c0.4-1.9,0.3-4.2-2-3.9c-2,0.3-4.3,2-3.2,5
		C240.8,262.3,240.7,264,238.7,265.3z"/>
	<path class="st8" d="M300.6,433.1c0.5-3,5.2-3.1,4.7-6.8c6.1-0.7,11.4-2.9,15.3-7.8c0.8-0.4,1.7-0.8,2.5-1.2
		c2.7,0.1,5.5,0.1,8.2,0.2C323.1,426.7,312.4,430.9,300.6,433.1z"/>
	<path class="st8" d="M186.1,260.1c0.3,1.8-0.7,3.8,1,5.3c-1.7,3.1-3.1,0.2-4.2-0.5c-5.1-3.3-10.3-6.7-13-12.4
		c2.5-1.6,6.1-2.2,5.9-6.3l0,0c4.5,0.9,1.3,3.8,1,5.3c-1,3.7-0.3,5.1,3.6,4C182,257.3,183.2,259.7,186.1,260.1z"/>
	<path class="st8" d="M173.6,220.7c3.2,2.1,2.1,5.8,2.5,8.5c0.4,2.9,1.3,6.7-1.9,9.5c-3.3,2.9,2.1,4.7,1.5,7.4c0,0,0,0,0,0
		c-1.3,0.5-2.3,2.3-4.2,1c-1.6-1.2-1.1-2.8-0.9-4.3c0.2-1,0.6-2,0.9-3c1-5.6,1.3-11.3,1.1-17.1C173.4,222.3,173.6,221.6,173.6,220.7
		L173.6,220.7z"/>
	<path class="st16" d="M383.9,221.3c2.5-3.2,6.2-1.5,9.4-2.1c2.1-0.4,4.2-0.5,6.3-0.7c0.1,0.3,0.2,0.5,0.4,0.8
		c-0.2,2.9-0.4,5.8-0.6,8.7c-3.6-1.7-7.2-3.4-11.3-3.7C386.7,223.3,385.3,222.3,383.9,221.3z"/>
	<path class="st5" d="M252.3,407.7c-3,0.1-4.5-3.3-7.5-3.3c0,0,0,0,0,0c-0.1-0.9-0.6-1.2-1.4-1.2c-4.5-6.4-7.5-13.1-5-21.1
		c2,3.3,2.1,7.2,3.2,10.8c1.7,5.8,5,10.1,10.6,12.6C252.2,406.3,252.2,407,252.3,407.7z"/>
	<path class="st13" d="M238.5,180.5c-0.8,4.8-0.5,5.2,5.5,8.6c-2.4-1-6.2,3.7-7.7-2.3c-0.3-1.2-2.2-2.8-4.3-2c-0.3,0.3-0.6,0.7-1,1
		c-1.1,0-2.2-0.1-3.4-0.1c-0.5-3.5,1-6,4-7.5c0-0.9,0-1.9,0.1-2.8C232.9,178.5,233.8,182.1,238.5,180.5z"/>
	<path class="st14" d="M260.7,263.1c-0.4-2.4,0.8-3.4,3.1-3.5c0.2,1.2,0.7,2.2,2.2,2.3c1.6,4.5,4,3.5,6.7,1.1
		c3.3-0.6,6.4-2.6,9.9-1.1C275.2,268.4,267.1,268.8,260.7,263.1z"/>
	<path class="st5" d="M331.3,417.4c-2.7-0.1-5.5-0.1-8.2-0.2c1.2-6.3,4.8-12.1,3.6-18.8c-0.2-1.3,1-1.7,2-2.1
		c0,4.6,0.1,9.2-0.1,13.8c-0.2,3.7,1.4,5.2,5,4.9C332.8,415.9,332,416.7,331.3,417.4z"/>
	<path class="st14" d="M258.5,194c2.5,0.7,6.1-0.4,6.8,3.1c0.3,1.7,0.8,4.4-2.4,5.5c-2.9,1-4.5-0.5-5.8-2.2
		c-0.6-0.7-1.1-1.6-1.9-2.1c0-0.4,0-0.7,0.1-1.1c0.5-0.5,0.9-1,1.4-1.5c0.3-0.2,0.6-0.4,1-0.6C257.9,194.8,258.2,194.4,258.5,194
		L258.5,194z"/>
	<path class="st7" d="M293.8,176.2c0.6-0.4,1.2-0.8,1.7-1.1c0.2,1.5,0,3.5,2.5,1.7c0.8-0.5,2-0.5,2.9-0.7c0.5,3,3,2.2,4.8,2.5
		c2.8,0.5,4.9,1.4,4.8,4.8c-0.2,0.1-0.4,0.2-0.6,0.1c-4.7-2-9.7-3-14.7-4.1C293.2,179,292,178.3,293.8,176.2z"/>
	<path class="st14" d="M210.8,267.3c-1-2-1.2-3.7,1.9-2.6c3.3,1.2,5-0.2,5.9-3.2c1.4,1.9,0.3,4.1,0.8,6.1
		C216.5,272.1,213.7,269,210.8,267.3z"/>
	<path class="st7" d="M442.5,252.2c-6.4,0.5-12.8,1-20.2,1.6c3.3-3,6.4-1.8,9.1-2.2c1.3-0.2,4,0.8,2.4-2.4c0-0.6,0.1-1.2,0.1-1.7
		c0.4,0,0.7,0,1.1-0.1c1.3,3,5.1,1,6.8,3.3C442,251.1,442.2,251.6,442.5,252.2z"/>
	<path class="st7" d="M219.5,267.5c-0.6-2,0.6-4.2-0.8-6.1c0-1.4-0.8-4.4,0.8-3.9c2.8,0.9,7.3,0.2,8.2,5.7c-4.7-2.8-7.5-2.6-7.3,3.1
		C220.1,266.8,219.8,267.1,219.5,267.5z"/>
	<path class="st8" d="M400,219.3c-0.2-0.2-0.3-0.5-0.4-0.8c2.7-1.8,5.9-1.9,8.9-2.7c4.1-1,2.1-2.3,0.4-3.7c1,0.1,2.1,0.1,3.1,0.3
		c1,0.2,2.2,0.3,2.3,1.7c0,1.3-1.1,1.7-2.1,2C408.1,217.3,404.3,219.4,400,219.3z"/>
	<path class="st13" d="M171.5,239.9c-0.3,1-0.7,2-0.9,3c-0.2,1.5-0.7,3.1,0.9,4.3c1.8,1.3,2.8-0.5,4.2-1c0.2,4.1-3.3,4.8-5.9,6.3
		c0.4-1.5,1.2-2.9,0-4.5C167.5,244.8,168.6,242.1,171.5,239.9z"/>
	<path class="st7" d="M282.5,262c-3.5-1.5-6.6,0.5-9.9,1.1c-0.8-0.6-1.5-1.3-2.3-1.9c4.5-1.1,9-2.1,13.6-3.2
		C283.9,259.5,283.6,260.9,282.5,262z"/>
	<path class="st14" d="M231.8,175.4c0,0.9,0,1.9-0.1,2.8c-2.6-1.1-5.3-1.9-8.1-2c1.6-1.1,2.7-3.1,5-3.2
		C229.4,174.2,231.4,173.6,231.8,175.4z"/>
	<path class="st13" d="M228.6,173.1c-2.3,0.1-3.3,2.1-5,3.2c-0.6,0.4-1.2,0.8-1.8,1.2c0,0-0.4-0.3-0.4-0.3c0.8-1.6-2.3-4,0-4.5
		C223.5,172.3,226.4,170,228.6,173.1z"/>
	<path class="st7" d="M396.5,212.2c2.8-0.2,5.4-0.8,7.5-2.7c1.9,0.3,3.6,0.9,4.8,2.6c-4.2,0.6-8.1,2.5-12.4,2
		C396.4,213.5,396.5,212.8,396.5,212.2z"/>
	<path class="st13" d="M256.6,195.8c-0.5,0.5-0.9,1-1.4,1.5c-3.2,1.5-3.4-2-5.1-3c-0.1-1.1,0.1-2.1,1-2.9c0.1,0.4,0.3,0.8,0.4,1.3
		C253.5,193.1,255.2,194.2,256.6,195.8z"/>
	<path class="st15" d="M345.6,391.5c0-5.3,0.1-10.6,0.1-15.8C347.2,381,347.3,386.2,345.6,391.5z"/>
	<path class="st7" d="M251.5,192.6c-0.1-0.4-0.3-0.8-0.4-1.3c0.1-0.8,0.1-1.7,0.2-2.5C253.8,189.9,252,191.3,251.5,192.6z"/>
	<path class="st5" d="M413.7,237.7c-0.7-0.4-1.5-0.7-2.2-1.1c0,0,0,0,0,0c0-0.4,0-0.7,0-1.1c0,0,0.1-0.1,0.1-0.1
		C413,235.6,414,236,413.7,237.7z"/>
	<path class="st7" d="M279.1,217.5c-0.8-0.1-1.6-0.1-2.3-0.2c0.3-0.6,0.6-1.2,0.9-1.8C278.8,215.8,278.8,216.8,279.1,217.5z"/>
	<path class="st13" d="M173.6,220.7c0,0.9-0.2,1.7-1,2.2C172.6,221.9,172.7,221.1,173.6,220.7z"/>
	<path class="st5" d="M414.8,237.7c-0.5,0.7-0.9,0.8-1.2-0.1C414.1,237.6,414.4,237.7,414.8,237.7z"/>
	<path class="st13" d="M258.5,194.1c-0.3,0.4-0.6,0.8-1,1.1C257.9,194.8,258.2,194.4,258.5,194.1z"/>
	<path class="st8" d="M243.4,403.2c0.7,0.1,1.3,0.4,1.4,1.2C243.9,404.5,243.6,403.8,243.4,403.2z"/>
	<path class="st7" d="M281.1,342c-2,4.7-5.3,7-10.6,6.2c-2.1-0.3-4.2,0.1-6.3,0.2c-4.2-1-5.7-4.2-6.8-7.9c6.1-6.7,13.7-10,22.7-10.2
		c0,0.7-0.2,1.8,0.1,2c5.1,2.4,3.2,4.8,0.1,7.2C278.7,340.8,279.1,341.7,281.1,342z"/>
	<path class="st7" d="M337,353.2c-2.1,1.9,0.1,4.8-1.6,6.7c-11.8-3.5-19.3-11.7-24.8-22.2c2.2-0.3,4.4-0.5,6.6-0.8
		C326.4,339.3,332,345.9,337,353.2z"/>
	<path class="st8" d="M281.1,342c-2-0.4-2.3-1.2-0.7-2.5c3.1-2.5,4.9-4.9-0.1-7.2c-0.3-0.1-0.1-1.3-0.1-2c0.9-0.1,1.8-0.1,2.7-0.2
		c7,4.9,7,4.9,0.5,10.7c-0.3-0.2-0.6-0.5-0.9-0.7c-0.1,0.3-0.2,0.5-0.3,0.8c0,0,0,0,0,0c-0.8-0.1-1.1,0.3-1.1,1.1L281.1,342z"/>
	<path class="st5" d="M257.4,340.5c1,3.7,2.6,6.9,6.8,7.9c-1.1,2.5-3.6,1.6-5.4,2.5c-2,1-2.4-0.1-2.5-1.9c-0.1-2.4-0.2-4.9-0.3-7.3
		C256.4,341.3,256.9,340.9,257.4,340.5z"/>
	<path class="st7" d="M274.6,381.1c1.6-5.9,5.3-10.8,7.9-16.2c1-2,2.7-2.4,4.9-2.3c5.8,0.4,11.5,1.1,17.2,2.5
		c2.5,0.6,3.6,1.8,4.1,4.1c1.3,6,2.6,12,2.3,18.2c-0.8,0.3-1.7,0.7-2.5,1c0-3.7-0.5-7.3-1-11c-1.2-9.9-1-10.3-10.7-11.1
		c-3.9-0.3-8-2.3-12.1-0.7c0.1,0.6,0.2,0.9,0.2,0.9c4.9,0.6,9.7,1.2,14.6,1.8c3.7,0.4,5.6,1.6,6,6.2c0.4,4.6-0.9,9.9,2.9,14
		c-3.3,3.1-7.9,3.6-11.7,5.6C289.3,398.1,275.7,388.2,274.6,381.1z"/>
	<path class="st6" d="M252.3,407.7c0-0.7-0.1-1.5-0.1-2.2c1.4-2.7,0.6-6,2.4-8.5c2.2,0.2,2.3,2.2,2.5,3.5c1.4,8.7,7.5,13,14.7,16.2
		c1.8,0.8,3.8,1,3.8,3.6c-2.7-0.4-4.6,2.5-7.3,1.6C261.7,418.6,256.1,414.1,252.3,407.7z"/>
	<path class="st5" d="M274.6,381.1c1.1,7.1,14.8,17,22.2,13.1c3.8-2,8.4-2.6,11.7-5.6l0,0c0.8-0.3,1.7-0.7,2.5-1
		c0.4,0.9,0.5,1.7-0.4,2.4c-5.8,4.3-12.3,7.4-19,10.2c-1.5,0.6-2.3-0.4-3.3-1.1c-5.1-3.5-9.3-8-13.7-12.3
		C272.5,384.6,273.9,383,274.6,381.1z"/>
	<path class="st5" d="M310.5,337.8c5.5,10.5,13.1,18.7,24.8,22.2c-0.3,1.4,0.6,4.4-2.6,2.1c-4.1-2.9-8.7-4.5-13.7-5.1
		c-2.3-0.3-2.8-1.8-3.4-3.4c-1.8-4.6-3.7-9.2-6.5-13.2C307.5,338.1,308.3,337.7,310.5,337.8z"/>
	<path class="st6" d="M320.6,418.4c-3.9,4.9-9.2,7.1-15.3,7.8c-3.4-0.7-6.8-1.2-9.6-3.4c0.5-0.8,1.2-1.5,2.1-1.3
		c7.3,2.3,13.7-0.4,20.2-3.1C318.7,418.2,319.7,418.4,320.6,418.4z"/>
	<path class="st6" d="M257.4,387.5c-1.7-1.5-3.6-2.9-4.2-5.3c5.1,0.4,10.2,0.7,16.5,2.5C265.1,387.3,260.8,385.7,257.4,387.5z"/>
	<path class="st6" d="M285.2,360.5c-5.1-1.7-5.8-6.3-7.2-10.4C282.1,352.4,283.1,356.8,285.2,360.5z"/>
	<path class="st7" d="M281,341.9c-0.1-0.8,0.3-1.1,1.1-1.1C282.3,341.7,282.1,342.3,281,341.9z"/>
	<path class="st7" d="M282,340.8c0.1-0.3,0.2-0.5,0.3-0.8c0.3,0.2,0.6,0.5,0.9,0.7C282.8,340.7,282.4,340.8,282,340.8z"/>
	<path class="st15" d="M321.1,215.1c0.4-2.6-2.5-2.5-3.6-4.6c3.2-0.6,6.1-0.9,8.9,1c1.7,1.1,3.1,0.5,3.8-1.3c0.8-2.1-1-2-2.2-2.6
		c-3.1-1.5-5.9-2.4-8.9,0.5c-1,1-3.3,0.7-5,1c-5.5-2.6-10.5-6.4-16.7-7.5c-0.6-3.2,4.4-6.4,0.1-10.1c2.8,0.8,5.6,1.7,8.4,2.5
		c1.2,0.3,2.6,1.3,3.5,0.9c7.4-3,12.5,5,19.6,4c0.7-0.1,3,3.3,4.7,4.9c1.4,1.3,2.7,2.6,4.7,3.3c1.4,0.5,3.2,1,3.4,2.9
		c0.2,2.3-2,2.6-3.4,3.5c-4.5,1.8-8.9,3.2-13.7,1.1c-0.1,0-0.7,1-1,1.6C322.7,215.8,321.9,215.4,321.1,215.1z"/>
	<path class="st6" d="M337.8,234.8c0,2-1.5,3.7-0.8,5.8c-6.6,0.4-13.4-1.9-19.5,2.3c-0.8,0.1-1.6,0.1-2.3,0.2
		c-0.7-0.4-1.1-1-0.9-1.8c1.8-1.5,2.4-2.9-0.3-4.2c-0.7-0.3-1.3-0.7-2-1c0.1-3.4-3.6-4.4-4.5-7.1c4.1-2.6,8.9-2.6,13.3-4.2
		c2.2-0.8,4.1-1.6,5.7-3.3c2.1,1.2,4.3,2.5,6.4,3.7C336.2,227.7,335.3,232.1,337.8,234.8z"/>
	<path class="st7" d="M317.5,242.9c6.1-4.2,13-1.9,19.5-2.3c-1.1,3.4-0.4,5.2,3.7,4.8c3.3-0.3,6.6-0.1,9.9-0.1
		c-6.3,2.4-12.4,2.7-18.5-1c-2.7-1.7-6-1.8-9.2-1C321.1,243.7,319.3,244.2,317.5,242.9z"/>
	<path class="st8" d="M307.6,229c0.9,2.7,4.6,3.7,4.5,7.1c-0.2,0.3-0.4,0.5-0.6,0.8c-0.9-0.1-1.9-0.2-2.8-0.3
		c-1.3-0.5-2.8-2-3.3,0.8c-2,0.3-4.2-0.2-5.6,3c-1.4-5.1-0.1-7.7,3.9-9.1C305,230.8,306.3,229.8,307.6,229z"/>
	<path class="st15" d="M333.1,225.3c-2.1-1.2-4.3-2.5-6.4-3.7c0.4-2.7-1.4-4.1-3.2-5.5c0.4-0.5,0.9-1.6,1-1.6
		c4.8,2.1,9.3,0.7,13.7-1.1c0,0.3-0.1,0.7-0.2,1c-0.7,1.4-1.2,3-3.3,2.9c-3.4-0.1-3.2,1.9-2.5,4.3
		C332.6,222.8,332.8,224.1,333.1,225.3z"/>
	<path class="st15" d="M305.3,237.4c0.5-2.8,2.1-1.2,3.3-0.8c-0.6,2.3-1.1,4.7-1.9,7.8c2.7-1.5,4.8-2.6,6.9-3.8
		c0.2,0.2,0.4,0.4,0.6,0.6c-0.2,0.8,0.2,1.4,0.9,1.8c-2.8,3.1-7.6,1.4-10.6,4.6c-0.7,0.8-1.1-1.5-0.7-2.6
		C304.7,242.6,307.1,240.4,305.3,237.4z"/>
	<path class="st15" d="M333.1,225.3c-0.3-1.2-0.4-2.4-0.8-3.6c-0.6-2.3-0.8-4.4,2.5-4.3c2.1,0.1,2.6-1.5,3.3-2.9
		c4.6,0.1,8.6-3.1,13.9-0.9c5.4,2.3,7.9,7.5,12.8,10.2c0.6,0.3,0.9,1.9,1.7,1.7c6-1.4,10.5,4.2,16.6,3.2c3.7-0.6,6.8,1.8,9.3,4.6
		c-6.1,0.9-6.6,2.5-2.8,7.7c2,2.7,0.4,4.2-2.2,5.4c-2.8,1.3-6.3-1.3-8.6,1.7c-0.5-2.1-2.1-2.6-4-2.8c-4.1-0.6-8.2-1.3-12.3-2
		c-3.5-3.9-9-3.1-13.9-5.2c2.5-2.1,4.7-1,6.6-1.4c1.4-0.3,3.1-0.4,3.1-2.2c0-1.6-1.6-2.3-3-2.4c-2.4-0.2-4.8-0.2-7.2,0
		c-0.4,0-0.7,1-1.1,1.6c0.8,0.5,1.6,0.9,2.7,1.6c-4.1,3.4-7.8,1.1-11.6-0.2C335.3,232.1,336.2,227.7,333.1,225.3z M339.9,221.9
		c0.4,0-0.5,0.1-1.4,0.1c-1.1,0-2.2,0.1-2.3,1.4c0,0.8,0.3,1.7,0.8,2.4c0.8,1.1,1.8,0.8,2.7-0.1c1.2-1.1,2.5-1.1,3.9-0.5
		c0.9,0.5,1.7,0.2,2-0.8c0.3-1.1,0-2.2-1.3-2.4C343.3,221.8,342.2,221.9,339.9,221.9z M351.1,222.9c-0.2-1.6-1-2.8-2.8-3.1
		c-0.7-0.1-1.5,0.2-1.5,1c0,1.7,1.4,2.7,2.7,3.4C350.4,224.9,350.9,223.9,351.1,222.9z"/>
	<path class="st15" d="M452.8,251.7c0.7,0.4,1.4,0.7,2.1,1.1c1.7,1.5,1.1,4.5,4.2,5.2c-2.5,1.7-4.1-0.3-5.9-0.1
		c-0.9,0.1-4-1.2-1.4,1.9c1,1.2-0.7,1.2-1.3,1.2c-5.9-0.6-11.7-1.2-17.5-1.8c4.2-1.3,8.6-0.9,13-1.2c0.2-2.3-1.7-1.1-2.7-1.9
		c1.5-0.7,2.8-1.3,4.4-2c-1.3-2.4-3.5-1.3-5.1-1.9c-0.3-0.5-0.5-1-0.8-1.5C445.5,249.8,449.1,251.4,452.8,251.7z M449,255.1
		c1.5,0.5,2.5,1,3.5,0.1C451.7,254.2,450.7,254.7,449,255.1z"/>
	<path class="st6" d="M383.9,221.3c1.4,1,2.8,1.9,4.2,2.9c-3.6,1.8-6.9,1.9-9.4-1.7c-2.5-3.6-3.9-8.1-9.5-8.4c-2-0.1-0.3-1.9,0-2.8
		c6.3-1.5,7.6,4.5,10.7,7.5C381,219.9,381.2,222.4,383.9,221.3z"/>
	<path class="st17" d="M362.3,243.2c4.1,0.7,8.2,1.4,12.3,2c1.8,0.3,3.5,0.8,4,2.8C372.4,249.1,366.5,249,362.3,243.2z"/>
	<path class="st7" d="M283.3,171.7c2.9-0.7,6.8-4.1,7.3,2.4c-0.7,1.2-1.3,2.4-2.1,3.6c-1.6-0.5-1.8-4.7-4.6-1.6
		c-0.7,0.7-1.1,0.4-2-3.2l0,0C282.4,172.5,282.9,172.1,283.3,171.7z"/>
	<path class="st17" d="M297.3,201.6c6.2,1.2,11.1,5,16.7,7.5c-0.1,0.7-0.3,1.9-0.8,1.6C307.9,207.5,301.5,206.5,297.3,201.6z"/>
	<path class="st15" d="M402,230.2c0.4,1.9,2.8,1.9,4.4,4.3c-3.8-0.2-6.5-1.1-9.1-2.4C398.3,229.4,400.2,229.8,402,230.2
		C402.1,230.2,402,230.2,402,230.2z"/>
	<path class="st7" d="M276.7,167.7c0.3,0.2,0.7,0.3,1,0.5c0.6,3.4,2.1,6.8-1,10.1C276.7,174.8,276.7,171.3,276.7,167.7z"/>
	<path class="st15" d="M280.9,166.2c0-1.5-0.4-3.1,0.9-4.8c2.3,2.5,2.5,5.3,2.2,8.4C282,169.5,282.5,167,280.9,166.2z"/>
	<path class="st15" d="M345,238.4c-0.3,0.7-0.9,1.2-1.6,0.9c-0.5-0.2-0.8-0.9-1.3-1.4c0.5-0.1,0.9-0.4,1.4-0.4
		C344.1,237.6,345,237.4,345,238.4z"/>
	<path class="st17" d="M310,183.5c0.2,0.1,0.4,0.1,0.6-0.1c0.7,0.1,1.5,0.3,2.2,0.4c-0.9,0.5-1.5,1.9-2.8,1.4
		C309.9,185.2,310,184.1,310,183.5z"/>
	<path class="st15" d="M315.8,186.9c-0.2,0.1-0.6,0.6-1,0.5c-0.3,0-0.8-0.7-0.7-0.9c0.1-0.3,0.6-0.7,1-0.8
		C315.5,185.7,316.1,185.9,315.8,186.9z"/>
	<path class="st7" d="M282,172.8c-0.3-0.4-0.5-0.7-0.8-1.1C282.4,171.5,281.7,172.5,282,172.8C281.9,172.9,282,172.8,282,172.8z"/>
	<polygon class="st15" points="347.6,238.1 347.2,238.2 347.2,238 	"/>
	<path class="st14" d="M186.1,260.1c-2.9-0.4-4.1-2.8-5.8-4.7c-0.2-0.9-0.1-2.1,0.9-2.1c2.7,0.2,5-0.1,5.1-3.4
		c0.1-3.3-1.6-5.4-4.9-6.3c-1.8-0.5-4.7-1-2.2-4.1c4.4,0.4,8.8,0.9,12.9-1.5c0.9,0.1,1.8,0.3,2.3,1.2c-0.6,2.8-0.7,5.7-3.4,7.7
		c-1,0.8-2.7,2.3-1.7,4c1.1,1.9,3,0.6,4.3,0.2c3.7-1.2,5,0.1,4.7,3.6c-0.7,0.4-1.4,0.7-2.1,1.1c-1.7,0.7-3.7,0.7-4.8,2.8
		C190.2,260.7,188.2,260.8,186.1,260.1z"/>
	<path class="st7" d="M182.4,235.4c0-0.3-0.1-0.7-0.2-1c0.4-0.9,0.8-1.8,1.1-2.8c1.6-1.9,0.8-4.4,1.7-6.5c1.4-3.3,2.7-2.6,4.2-0.1
		c-0.9,0.5-2.1,1.1-1.3,2.4c0.8,1.2,2.4,1.1,3.4,0.6c5.7-3.1,8.7,0.6,11.9,4.3c-1.1,0.2-2.4-0.4-3.6,0.9c1.5,0.5,2.7,0.7,3.8-0.6
		c0.7,1,3.6,0.4,2.1,3c-1.2,0-2.4,0.1-3.6,0.1c-3.4-1.1-6.8-0.5-10.1,0.7c-0.5-2.7-2.8-2.9-4.7-3.1
		C185.3,232.9,184.9,236.3,182.4,235.4z"/>
	<path class="st14" d="M203.2,232.2c-3.2-3.6-6.2-7.4-11.9-4.3c-0.9,0.5-2.6,0.7-3.4-0.6c-0.8-1.2,0.4-1.8,1.3-2.4
		c0,0,0.2,0.2,0.2,0.2c0.2,0.4,0.3,0.8,0.5,1.2c0.3-0.3,0.5-0.7,0.8-1c0.2-0.2,0.3-0.4,0.4-0.6c0.3-0.2,0.5-0.5,0.5-0.9
		c2.7-4.5,4.4-4.5,7.6,0c3-0.1,2.1,5.6,6.1,4.1c5,4,8.7,10.2,16.7,9.4c-1.2,4.6-4.6,3.6-6.8,3c-2.9-0.8-5.2-3.3-8.8-2.3
		c-0.9,0.3-1-1.6-0.8-2.6c1.6-2.6-1.4-2-2.1-3L203.2,232.2z"/>
	<path class="st8" d="M205.2,228.1c-4,1.5-3.1-4.2-6.1-4.1c2.8-3,4.4-5.8-0.6-8.3c-1.9-1-0.1-2.8-0.8-4.3
		C204.6,214.5,207,220.2,205.2,228.1z"/>
	<path class="st7" d="M221.8,177.4c0.6-0.4,1.2-0.8,1.8-1.2c2.8,0.1,5.5,0.9,8.1,2c-3.1,1.6-4.5,4-4,7.5c-2.6,4.3-5.3,0.4-7.9,0.1
		c0.1-0.3,0.2-0.8,0.4-0.9C224.1,183.1,225.5,180.8,221.8,177.4z"/>
	<path class="st8" d="M191.9,236.3c0,0.6,0.1,1.2,0.1,1.8c-4.1,2.4-8.5,1.9-12.9,1.5c-0.7-2.8,0.2-4.4,3.3-4.2
		c2.4,1,2.9-2.5,4.7-2.2C189,233.4,191.4,233.6,191.9,236.3z"/>
	<path class="st14" d="M201.9,204.9c-0.5,4.4-3.8,3.7-6.8,3.7c0.1-1.2,0.2-2.4,0.3-3.5c3.8-2,1.7-7.4,5.4-9.5
		C203.8,198.4,199.5,202.1,201.9,204.9z"/>
	<path class="st8" d="M201.9,204.9c-2.4-2.9,1.9-6.5-1.1-9.4c0.4-2.1,0.5-4.4,2.8-5.7c0.9-0.5,1.2-2.5,2.7-1.8
		c1.3,0.6-0.2,2.2,0.4,3.3c0,0.5,0,0.9,0,1.4c-2.6,2.7-2.5,5.7-1.4,8.9c0,0.3,0.1,0.6,0.1,0.8C205.4,204.9,203.5,204.7,201.9,204.9z
		"/>
	<path class="st7" d="M209.8,212.3c2.8,0.5,4.8-2.1,7.7-2c0.6,3.3-0.9,5.3-3.3,7c-0.5,0-1,0-1.5,0
		C207.1,217.3,207.1,217.3,209.8,212.3z"/>
	<path class="st8" d="M195.4,205c-0.1,1.2-0.2,2.4-0.3,3.5c-0.6,1.3-0.4,3.7-2.8,2.7c-1.9-0.7-3.6-2.9-2.3-4.5
		c1.5-1.9,1.1-4.2,2.4-6.1C194.4,201.7,194,204,195.4,205z"/>
	<path class="st14" d="M219.2,248.4c0,0.2-0.1,0.4-0.1,0.6c-4.6,0.6-4.4,3.4-3,6.7c-0.1,0.3-0.2,0.5-0.2,0.8c-1.4-0.1-3.4,1-3.9-1.2
		c-0.5-2-0.6-4.1,1.2-5.8c1.2-1.1,2.5-2.3,3.8-3.4C216.8,247.8,217.6,248.6,219.2,248.4z"/>
	<path class="st8" d="M183.4,231.6c-0.4,0.9-0.8,1.8-1.1,2.8c-1.5-1.6-5.3-0.9-4.5-4.8c0.3-1.4-0.5-3.3,2-3.5
		c1.9-0.1,2.1,1.2,2.4,2.7C182.4,229.7,183,230.6,183.4,231.6z"/>
	<path class="st14" d="M212.9,229.3c-1.6-0.6-4-0.6-4.2-2.9c-0.1-1.9,2.1-1.8,3.2-2.7c1.3,0.2,2,1,2.5,2.2c-0.1,0.7-0.1,1.4-0.2,2.2
		C213.8,228.5,213.4,228.9,212.9,229.3z"/>
	<path class="st14" d="M221.4,230.2c-1.3,5.7-4.1,1.9-6.4,1c0.3-1,0.7-2,1-2.9c0.4-0.1,0.8-0.3,1.2-0.4
		C218.3,229.2,219.4,230.6,221.4,230.2z"/>
	<path class="st8" d="M196,255.9c0.7-0.4,1.4-0.7,2.1-1.1c0.7,0.2,2.6-0.6,1.9,0.9c-1,1.8-0.2,4.6-2.9,5.5l-0.4-0.4
		C196.5,259.2,196.3,257.6,196,255.9z"/>
	<path class="st7" d="M221.4,230.2c-2.1,0.4-3.2-0.9-4.2-2.4c0.2-0.9,0.6-1.9,1.6-1.7C220.9,226.6,221.1,228.5,221.4,230.2z"/>
	<path class="st7" d="M214.5,225.9c-0.5-1.1-1.2-2-2.5-2.2c1.3-1.4,3.2-1.6,4.2-0.6C217.1,224.2,215.2,225,214.5,225.9z"/>
	<path class="st7" d="M216,228.2c-0.3,1-0.7,2-1,2.9c-2.7,1.7-1.8-0.8-2.1-1.8c0.5-0.4,0.9-0.8,1.4-1.2
		C214.9,228.1,215.4,228.2,216,228.2z"/>
	<path class="st8" d="M219.2,248.4c-1.7,0.2-2.4-0.6-2.3-2.3c0.2-0.2,0.3-0.5,0.4-0.8C219,245.7,219.5,246.8,219.2,248.4z"/>
	<path class="st7" d="M190.7,225.5c-0.3,0.3-0.5,0.7-0.8,1c-0.2-0.4-0.3-0.8-0.5-1.2C189.9,225.3,190.3,225.4,190.7,225.5z"/>
	<path class="st8" d="M197.1,261.2c-0.2,0.1-0.5,0.3-0.7,0.4c0.1-0.3,0.3-0.5,0.4-0.8C196.8,260.9,197.1,261.2,197.1,261.2z"/>
	<path class="st7" d="M215.9,256.6c0.1-0.3,0.2-0.5,0.2-0.8c0.1,0.2,0.1,0.5,0.2,0.7C216.2,256.5,216.1,256.5,215.9,256.6z"/>
	<path class="st7" d="M191.6,224c0,0.4-0.2,0.7-0.5,0.9C191.3,224.6,191.4,224.3,191.6,224z"/>
	<path class="st13" d="M243.6,219.7c2.3-0.6,2.2,4.9,5.4,2.1c1.9,0.8,3.8,1.9,5.1-0.9c0.7-0.1,1.4-0.3,2.1-0.3c1,0,2.3-1.8,3.1,0.1
		c0.4,1.1,0.2,2.3-1.2,3.1c-3.1,1.7-4.8,3.4-0.1,5.4c1.4,0.6,1.7,1.3-0.6,1.9c-2.1,0.5-1.2,2.8-0.2,4.3c1.1,1.6-0.2,2.5-1.1,2.8
		c-1.4,0.6-1.6-0.7-1.8-1.8c-1.8-8-5-9.9-11.7-6c-2.9,1.7-2.6,0.9-3.3-1.5c-0.8-2.8-2.6-5.3-1.9-8.4
		C239.8,222.6,241.7,220.9,243.6,219.7z"/>
	<path class="st13" d="M237.3,217.5c-1-1-2-2-3-2.9c-0.7-0.7-2.1-1.1-1.5-2.4c0.6-1.2,1.5-0.8,2.6,0c1,0.7,1-0.4,0.9-1
		c-1.7-4.9,4.6-3.9,5.2-7.1c0.4,0.5,0.8,1.1,1.2,1.6c0.7,1.9,1.4,3.7,2.1,5.6c-1,1-1.9,2.1-2.9,3.1
		C238.4,212.5,239.3,217.2,237.3,217.5z"/>
	<path class="st7" d="M237.5,193.9c4.3-0.8,5.7,1.1,5.4,7.3c-4.1-0.7-7.5-4.5-12.2-3c-0.8,0.3-1.7-0.4-1.7-1.5
		c0-0.9,0.9-1.6,1.3-1.3c2.7,1.9,4.3-1.7,6.7-1.1c0.3,0.4,0.2,1.5,0.9,1.1C238.6,195,238,194.4,237.5,193.9z"/>
	<path class="st13" d="M224.6,200.5c4.4-0.9,4.9-0.4,3.8,3.6c-0.1,0.5-0.2,1-0.2,1.4c0.1,1.4,2.9,3.3,0,4.1c-2.2,0.6-3.5-1.6-4-3.8
		c-0.2-0.7-0.5-1.3-0.8-1.9C223.9,202.8,224.3,201.6,224.6,200.5z"/>
	<path class="st13" d="M220,195.4c-1.6-2.4-4.3-0.6-6.3-1.7c0.3-1.8,1.6-1.5,2.8-1.4c3.2,0.4,3.2,0.5,3.9-2.6c0.2-1.1,1-0.8,1.4-0.7
		c1.7,0.2,2.9,1.8,2.2,2.9c-1.6,2.6-0.2,5.1-0.7,7.6c-1.8-0.1-1.8-1.2-1.5-2.6C222.1,195.6,222,194.3,220,195.4z"/>
	<path class="st13" d="M269.5,225.8c-1.7-0.8-2.9-1.6-4.2-1.9c-1.4-0.4-3.4,0.2-3.4-2.2c0-1.3,0.7-1.9,2-1.9c1.9,0,4.1-0.6,4.8,2
		C269.1,222.9,269.2,224.1,269.5,225.8z"/>
	<path class="st13" d="M205.4,201.7c-1.1-3.2-1.2-6.3,1.4-8.9c1.6,0.5,3.2,1.1,5.4,1.9C208.7,196.4,206.8,198.8,205.4,201.7z"/>
	<path class="st7" d="M262.6,239.8l-0.3,0c0,0-0.3,0-0.3,0c-0.6-1.1-2.9-1.6-1.9-3.3c1.1-1.9,2.7,0.6,3.4,0.3
		c2.7-1.3,4.4-0.1,6.1,1.7C267.4,240.5,264.9,239.5,262.6,239.8z"/>
	<path class="st7" d="M266.3,231c-2.5,0.1-5.2,1.2-5.9-1.9c-0.7-3.2,1.1-4.1,3.3-1.7C264.5,228.2,264.6,230,266.3,231z"/>
	<path class="st13" d="M217.9,199.3c0.3,1.5,1.1,2.7,2.5,3.5c-2.3,3.8-4.4,0.5-7.3,0C215,201.4,216.5,200.3,217.9,199.3z"/>
	<path class="st7" d="M250.1,194.3c1.7,1,1.9,4.6,5.1,3c0,0.4,0,0.7-0.1,1.1c-0.6,0-1.2-0.1-1.7-0.1c-2.1,0.1-4.1,0.1-5-2.3
		C247.8,194.2,249.9,195.2,250.1,194.3z"/>
	<path class="st7" d="M275,218c0,0.7,0,1.4,0.1,2.2c-2.4-0.8-4.7-1.7-7.5-2.6C270.5,215.3,272.7,217.4,275,218z"/>
	<path class="st7" d="M258.6,239.9c-2,1.7-4.3,0.6-6.5,0.7C254.1,239,256.4,239.9,258.6,239.9z"/>
	<path class="st13" d="M215.8,207.5c-0.1-0.3-0.3-0.5-0.4-0.8c0.4-0.2,0.8-0.3,1.1-0.5c0.1,0.3,0.2,0.7,0.1,0.8
		C216.5,207.3,216.1,207.4,215.8,207.5z"/>
	<path class="st7" d="M231.1,185.8c0.3-0.3,0.6-0.7,1-1C231.8,185.3,232.3,186.3,231.1,185.8z"/>
	<path class="st18" d="M222.5,301.4c0,3.1,1.9,3.3,4.5,3.4c5.5,0.2,11.1-1.3,16.5,0.8c-12.3,1.4-24.6,1.3-38.3-0.4
		C211.5,302.1,217.1,302.3,222.5,301.4z"/>
	<path class="st13" d="M232.4,246.8c1.7-0.1,3.4-0.2,5.1-0.3c0,0.2,0,0.3,0,0.5c-0.1,2.8,0.6,7-3.1,6.9
		C232.4,253.9,232,249.5,232.4,246.8z"/>
	<path class="st14" d="M244.7,249.3c0.7,0,1.4,0,2.2,0c0,1.5,1.6,2,2.2,3.1c-2.5,1.2-5,2.2-5.5-2C243.9,250,244.3,249.7,244.7,249.3
		z"/>
	<path class="st13" d="M224.7,240.8c0.1,0.2,0.3,0.4,0.4,0.6c-0.2-0.1-0.4-0.3-0.5-0.4C224.5,240.9,224.7,240.8,224.7,240.8z"/>
	<path class="st8" d="M396.5,212.2c0,0.6-0.1,1.3-0.1,1.9c-3.4,0.4-6,4.1-11.4,2.8C389.7,214.8,392.4,211.9,396.5,212.2z"/>
	<path class="st7" d="M265.9,262c-1.4-0.1-1.9-1.1-2.2-2.3c-1.2-1-2.6-1-3.9-0.4c-4.3,2.2-6.4-0.8-8.6-3.5c1.3,1.2,2.7,0.9,4.1,0
		c1.3,0,2.6,0,3.9,0c1.4-0.1,4.2,5.1,4.2-1.2c0-1.7,2.3,0,3.6,0.1l0,0c0.4,2,0.8,4,1.1,6C267.4,261.1,266.7,261.6,265.9,262z"/>
	<path class="st7" d="M263,245.2c2.8-0.2,6,2.9,8.3-1.2c0.3-0.5,1-0.1,1.1,0.5c0.1,0.6,0.3,1.6,0,1.8c-1.5,1-2.6,2.2-3.2,3.9
		c-3.1-1-6.2,0.2-9.3,0.2c-0.4-1.1-0.8-2.1-1.2-3.2C260.2,246.6,263.2,249.1,263,245.2z"/>
	<path class="st13" d="M258.8,247.2c0.4,1.1,0.8,2.1,1.2,3.2c-2.1,1.5-0.2,3.6-0.6,5.3c-1.3,0-2.6,0-3.9,0c-0.9-1.8,1.9-4.3-1.1-5.6
		c0-2.1,2-2.2,3.2-3.1C257.9,247.1,258.3,247.2,258.8,247.2z"/>
	<path class="st13" d="M265.9,262c0.8-0.5,1.5-0.9,2.3-1.4c0.7,0.2,1.4,0.4,2.1,0.6c0.8,0.6,1.5,1.3,2.3,1.9
		C269.9,265.5,267.5,266.5,265.9,262z"/>
	<path class="st7" d="M267.1,254.7c0.1-1.5,0.9-2.2,2.4-2.1c1.2,0.1,2.5-0.3,3.4,0.8c0.2,0.3,0.3,1.1,0.1,1.4
		c-1,1.3-2.2,0.3-3.3,0.1C268.8,254.7,267.9,254.7,267.1,254.7C267.1,254.6,267.1,254.7,267.1,254.7z"/>
	<path class="st7" d="M257.4,247.1c-1.2,0.9-3.1,1-3.2,3.1c-1.4,0.3-3.1,0.2-3.3,2.3c-0.6,0-1.2,0-1.9-0.1c-0.7-1.1-2.2-1.6-2.2-3.1
		c0,0,0,0,0,0c2.2-1.3,5.1-0.6,6.9-3.3C254.9,244.3,256.5,245.7,257.4,247.1z"/>
	<path class="st14" d="M251,252.5c0.2-2.1,1.9-2,3.3-2.3c3,1.3,0.3,3.8,1.1,5.6c-1.4,0.9-2.7,1.1-4.1,0
		C251.2,254.7,251.1,253.6,251,252.5z"/>
	<path class="st14" d="M284.3,242.9c-1,1.2-2.5,1.3-3.8,1.1c-3-0.3-6.7-0.2-3.2-4.9c0.5-0.6,0.3-1.6,0.5-2.5c0.7,0.4,1.3,0.7,2,1.1
		C281.2,239.4,282.7,241.2,284.3,242.9z"/>
	<path class="st8" d="M308.5,388.5c-3.8-4-2.5-9.3-2.9-14c-0.4-4.5-2.4-5.7-6-6.2c-4.9-0.6-9.7-1.2-14.6-1.8c-0.1,0-0.1-0.3-0.2-0.9
		c4.1-1.6,8.2,0.4,12.1,0.7c9.7,0.8,9.5,1.1,10.7,11.1C308,381.2,308.5,384.8,308.5,388.5C308.5,388.5,308.5,388.5,308.5,388.5z"/>
	<path class="st15" d="M314,237.1c2.7,1.2,2.1,2.6,0.3,4.2c-0.2-0.2-0.4-0.4-0.6-0.6c0-0.9,0-1.9,0.1-2.8
		C313.8,237.6,313.9,237.4,314,237.1z"/>
	<path class="st8" d="M312.1,236.1c0.7,0.3,1.3,0.7,2,1c-0.1,0.3-0.2,0.5-0.3,0.8c-0.8-0.3-1.5-0.6-2.3-0.9
		C311.6,236.7,311.8,236.4,312.1,236.1z"/>
	<path class="st5" d="M311.4,237c0.8,0.3,1.5,0.6,2.3,0.9c0,0.9,0,1.9-0.1,2.8c-2.1,1.1-4.2,2.3-6.9,3.8c0.8-3.2,1.3-5.5,1.9-7.8
		C309.6,236.8,310.5,236.9,311.4,237z"/>
	<path class="st5" d="M339.9,221.9c2.3,0,3.4-0.2,4.4,0c1.2,0.3,1.6,1.3,1.3,2.4c-0.3,1.1-1.1,1.3-2,0.8c-1.4-0.7-2.7-0.7-3.9,0.5
		c-0.9,0.8-1.9,1.2-2.7,0.1c-0.5-0.6-0.8-1.6-0.8-2.4c0.1-1.4,1.2-1.5,2.3-1.4C339.4,222,340.3,221.9,339.9,221.9z"/>
	<path class="st5" d="M351.1,222.9c-0.2,0.9-0.7,1.9-1.7,1.3c-1.3-0.7-2.6-1.7-2.7-3.4c0-0.8,0.9-1.1,1.5-1
		C350.1,220.1,350.9,221.3,351.1,222.9z"/>
	<path class="st5" d="M449,255.1c1.7-0.4,2.6-0.8,3.5,0.1C451.6,256,450.6,255.6,449,255.1z"/>
	<path class="st14" d="M203.5,232.5c-1.1,1.3-2.3,1.1-3.8,0.6c1.2-1.3,2.4-0.7,3.6-0.9C203.2,232.2,203.5,232.5,203.5,232.5z"/>
	<path class="st14" d="M257.4,247.1c-1-1.4-2.5-2.8-3.7-1c-1.8,2.7-4.7,2-6.9,3.3c1.8-6.2,9.7-8.2,16.1-4.2c0.2,4-2.8,1.4-4.2,2.1
		C258.3,247.2,257.9,247.1,257.4,247.1z"/>
	<path class="st14" d="M237.5,193.9c0.5,0.4,1.1,1.1,0.5,1.5c-0.8,0.5-0.7-0.6-0.9-1.1C237.2,194.2,237.4,194.1,237.5,193.9z"/>
</g>
<g>
	<path class="st3" d="M263.4,528.8l-25.1-5.2c0.8-2.4,2.2-4.6,4.1-6.5c1.9-1.9,5.2-3.9,9.8-6c2.8-1.3,4.7-2.4,5.6-3.2
		c0.9-0.8,1.4-1.6,1.6-2.5c0.2-0.9,0-1.8-0.5-2.6c-0.5-0.8-1.3-1.3-2.4-1.5c-1.1-0.2-2-0.1-2.8,0.5c-0.8,0.5-1.5,1.6-2.1,3.3
		l-8.2-2.4c0.8-2.3,1.8-4,3-5.1c1.2-1.1,2.6-1.9,4.3-2.3c1.7-0.4,4-0.3,6.8,0.3c2.9,0.6,5.2,1.4,6.7,2.4c1.5,1,2.6,2.3,3.2,3.9
		c0.6,1.6,0.8,3.2,0.4,5c-0.4,1.8-1.3,3.5-2.7,4.9c-1.4,1.4-3.8,2.9-7,4.3c-1.9,0.8-3.2,1.4-3.9,1.7c-0.7,0.3-1.5,0.8-2.4,1.4
		l13.1,2.7L263.4,528.8z"/>
	<path class="st3" d="M271.6,514.4c0.4-5.8,1.8-9.8,4.1-12c2.3-2.2,5.6-3.1,9.9-2.8c2.1,0.2,3.7,0.5,5,1.2c1.3,0.6,2.3,1.4,3.1,2.2
		c0.8,0.9,1.4,1.8,1.8,2.7c0.4,0.9,0.7,2,0.9,3.2c0.4,2.3,0.5,4.7,0.3,7.2c-0.4,5.6-1.7,9.6-3.8,12c-2.1,2.4-5.4,3.5-10,3.1
		c-2.6-0.2-4.6-0.8-6.2-1.7c-1.5-0.9-2.7-2.3-3.6-3.9c-0.7-1.2-1.1-2.8-1.4-4.8C271.5,518.9,271.4,516.7,271.6,514.4z M280.1,515
		c-0.3,3.9-0.2,6.6,0.4,8.1c0.6,1.5,1.5,2.3,2.8,2.4c0.9,0.1,1.6-0.2,2.3-0.7c0.7-0.6,1.2-1.5,1.6-2.8c0.4-1.3,0.7-3.3,0.9-6.1
		c0.3-4.1,0.2-6.8-0.4-8.3s-1.6-2.2-2.9-2.3c-1.4-0.1-2.5,0.5-3.2,1.9C280.9,508.5,280.4,511.2,280.1,515z"/>
	<path class="st3" d="M301.8,516.3c-0.3-5.8,0.5-10,2.5-12.4c2-2.4,5.1-3.8,9.4-4c2.1-0.1,3.8,0.1,5.1,0.5c1.4,0.4,2.5,1,3.4,1.8
		c0.9,0.8,1.6,1.6,2.1,2.5c0.5,0.9,1,1.9,1.3,3.1c0.7,2.3,1.1,4.6,1.2,7.1c0.3,5.6-0.4,9.7-2.2,12.4c-1.8,2.7-4.9,4.1-9.5,4.4
		c-2.6,0.1-4.7-0.2-6.3-0.9c-1.6-0.7-3-1.9-4.1-3.4c-0.8-1.1-1.5-2.6-2-4.6C302.2,520.9,301.9,518.7,301.8,516.3z M310.2,515.9
		c0.2,3.9,0.7,6.6,1.5,8c0.8,1.4,1.8,2.1,3.1,2c0.9,0,1.6-0.4,2.2-1c0.6-0.6,1-1.6,1.3-3c0.2-1.3,0.3-3.4,0.1-6.2
		c-0.2-4.1-0.7-6.8-1.5-8.2c-0.8-1.4-1.8-2-3.2-1.9c-1.4,0.1-2.4,0.8-2.9,2.3C310.2,509.4,310,512,310.2,515.9z"/>
	<path class="st3" d="M354.7,501.8l-8.2,2.6c-0.4-1.1-1-1.9-1.6-2.3s-1.3-0.5-2-0.4c-1.4,0.3-2.3,1.1-2.8,2.6
		c-0.4,1.1-0.4,3.3-0.1,6.6c0.8-1.2,1.7-2.1,2.7-2.8c1-0.7,2.2-1.2,3.5-1.4c2.7-0.5,5.2,0.1,7.4,1.6c2.2,1.6,3.6,3.9,4.1,6.8
		c0.4,2,0.2,3.9-0.4,5.7c-0.6,1.8-1.7,3.3-3.2,4.5c-1.5,1.2-3.5,2-6.1,2.4c-3,0.6-5.6,0.5-7.6-0.2c-2-0.7-3.8-2.1-5.3-4.1
		c-1.5-2.1-2.6-5-3.3-8.7c-1-5.5-0.6-9.7,1.2-12.6c1.8-3,4.8-4.8,8.9-5.6c2.4-0.4,4.4-0.5,5.9-0.2c1.5,0.3,2.8,0.9,3.9,1.8
		C353,499,353.9,500.2,354.7,501.8z M341.7,518.1c0.3,1.6,0.9,2.8,1.9,3.6c1,0.8,2.1,1.1,3.3,0.8c1.1-0.2,1.9-0.8,2.5-1.8
		c0.6-1,0.7-2.3,0.4-4c-0.3-1.7-0.9-2.9-1.9-3.7c-0.9-0.8-2-1-3.1-0.8c-1.2,0.2-2.1,0.8-2.7,1.8
		C341.5,515.2,341.4,516.5,341.7,518.1z"/>
</g>
</svg>
