<svg width="600" height="600" viewBox="0 0 600 600" fill="none" xmlns="http://www.w3.org/2000/svg">
<rect x="88" y="26" width="435" height="146" fill="#E5E5E5"/>
<path d="M517 349.044V155.985L96.8232 125C77.4817 158.769 90.8449 234.503 101.655 347.209C113.16 467.154 219.705 536.445 263.723 557.471C272.394 577.223 307.712 602.123 398.95 536.368C490.189 470.613 515.666 384.087 517 349.044Z" fill="#DFDFDF"/>
<path d="M514.36 34.97V293.86C514.36 302.32 512.02 501.6 308.17 571.46C104.32 501.6 101.98 302.31 101.98 293.86V34.97H303.22H313.12H514.36ZM531.34 18H313.12H303.22H85C85 18 85 222.25 85 293.86C85 319.97 96.31 517.15 303.22 587.71L308.17 589.33L313.12 587.71C520.02 517.15 531.34 319.97 531.34 293.86C531.34 222.24 531.34 18 531.34 18Z" fill="#01152A"/>
<path d="M531 18H85V36H531V18Z" fill="#01152A"/>
<path d="M292.172 318.844H327.328C327.328 315.094 327.422 311.906 327.609 309.281C327.797 306.562 328.266 304.078 329.016 301.828C329.672 299.578 330.797 297.375 332.391 295.219C333.984 293.062 336.188 290.578 339 287.766C343.594 283.734 348.141 279.609 352.641 275.391C357.234 271.078 361.312 266.531 364.875 261.75C368.438 257.062 371.344 252 373.594 246.562C375.844 241.031 376.969 234.938 376.969 228.281C376.969 219.281 375.469 211.359 372.469 204.516C369.469 197.672 365.156 191.906 359.531 187.219C353.812 182.625 346.828 179.156 338.578 176.812C330.328 174.469 321 173.297 310.594 173.297C301.312 173.297 292.688 174.469 284.719 176.812C276.75 179.062 269.812 182.531 263.906 187.219C258 191.906 253.312 197.812 249.844 204.938C246.375 211.969 244.594 220.266 244.5 229.828H283.734C283.828 225.516 284.625 221.812 286.125 218.719C287.719 215.625 289.781 213.094 292.312 211.125C294.75 209.156 297.562 207.75 300.75 206.906C303.938 205.969 307.219 205.5 310.594 205.5C314.906 205.5 318.703 205.969 321.984 206.906C325.359 207.844 328.219 209.25 330.562 211.125C332.812 213.188 334.547 215.812 335.766 219C336.984 222.094 337.594 225.797 337.594 230.109C337.594 233.672 336.797 237.234 335.203 240.797C333.609 244.359 331.547 247.828 329.016 251.203C326.391 254.672 323.484 258.047 320.297 261.328C317.109 264.516 313.922 267.562 310.734 270.469C306.328 273.938 302.906 277.219 300.469 280.312C298.031 283.312 296.203 286.594 294.984 290.156C293.766 293.812 292.969 297.891 292.594 302.391C292.312 306.891 292.172 312.375 292.172 318.844ZM286.406 361.453C286.406 367.453 288.422 372.516 292.453 376.641C296.484 380.672 302.062 382.688 309.188 382.688C316.125 382.688 321.656 380.672 325.781 376.641C330 372.516 332.109 367.453 332.109 361.453C332.109 355.266 330 350.109 325.781 345.984C321.656 341.766 316.125 339.656 309.188 339.656C302.062 339.656 296.484 341.766 292.453 345.984C288.422 350.109 286.406 355.266 286.406 361.453Z" fill="#01152A"/>
</svg>
