<svg width="22" height="22" viewBox="0 0 22 22" fill="none" xmlns="http://www.w3.org/2000/svg">
<path d="M1.64645 2.93201L9.71444 11L1.64645 19.068L1.29289 19.4215L1.64645 19.7751L2.2249 20.3536L2.57845 20.7071L2.93201 20.3536L11 12.2856L19.068 20.3536L19.4215 20.7071L19.7751 20.3536L20.3536 19.7751L20.7071 19.4215L20.3536 19.068L12.2856 11L20.3536 2.93201L20.7071 2.57845L20.3536 2.2249L19.7751 1.64645L19.4215 1.29289L19.068 1.64645L11 9.71444L2.93201 1.64645L2.57845 1.29289L2.2249 1.64645L1.64645 2.2249L1.29289 2.57845L1.64645 2.93201Z" fill="#f9314b" stroke="#f9314b"/>
</svg>
