<svg width="20" height="20" viewBox="0 0 20 20" fill="none" xmlns="http://www.w3.org/2000/svg">
<g clip-path="url(#clip0)">
<path fill-rule="evenodd" clip-rule="evenodd" d="M20 0C21.3486 0 20 1.09492 20 2.44352V20C20 21.3486 18.9051 20 17.5565 20H13.3976V12.4643H15.9991L16.4941 9.23687H13.3976V7.14246C13.3976 6.25953 13.8301 5.39887 15.2171 5.39887H16.625V2.65121C16.625 2.65121 15.3473 2.43316 14.1257 2.43316C11.5754 2.43316 9.90852 3.97883 9.90852 6.77707V9.23687H7.07364V12.4643H9.90852V20H2.44352C1.09492 20 -5.36442e-06 21.3486 -5.36442e-06 20L2.08616e-06 2.44352C2.08616e-06 1.09492 -1.34864 0 -5.36442e-06 0H20Z" fill="#F9314B"/>
</g>
<defs>
<clipPath id="clip0">
<rect width="20" height="20" fill="white"/>
</clipPath>
</defs>
</svg>
