<svg width="20" height="20" viewBox="0 0 20 20" fill="none" xmlns="http://www.w3.org/2000/svg">
<g clip-path="url(#clip0)">
<path fill-rule="evenodd" clip-rule="evenodd" d="M17.5565 8.34465e-06C18.9051 8.34465e-06 20 -1.34859 20 0V20C20 21.3486 18.9051 20 17.5565 20H2.44352C1.09492 20 0 21.3486 0 20V8.34465e-06C0 -1.34859 1.09488 8.34465e-06 2.44352 8.34465e-06H17.5565ZM10 3.16407C8.14348 3.16407 7.91067 3.17192 7.18156 3.2052C6.45395 3.23841 5.95703 3.35395 5.52219 3.52298C5.07266 3.69766 4.69145 3.93142 4.31141 4.31141C3.93137 4.69145 3.69762 5.0727 3.52293 5.5222C3.35395 5.95704 3.2384 6.45395 3.20516 7.18157C3.17191 7.91067 3.16406 8.14349 3.16406 10C3.16406 11.8565 3.17191 12.0893 3.20516 12.8184C3.2384 13.5461 3.35395 14.043 3.52293 14.4778C3.69762 14.9273 3.93137 15.3086 4.31141 15.6886C4.69145 16.0686 5.07266 16.3024 5.52219 16.4771C5.95703 16.6461 6.45395 16.7616 7.18156 16.7948C7.91067 16.8281 8.14348 16.8359 10 16.8359C11.8565 16.8359 12.0893 16.8281 12.8184 16.7948C13.5461 16.7616 14.043 16.6461 14.4778 16.4771C14.9273 16.3024 15.3086 16.0686 15.6886 15.6886C16.0686 15.3086 16.3024 14.9273 16.4771 14.4778C16.6461 14.043 16.7616 13.5461 16.7948 12.8184C16.8281 12.0893 16.8359 11.8565 16.8359 10C16.8359 8.14349 16.8281 7.91067 16.7948 7.18157C16.7616 6.45395 16.6461 5.95704 16.4771 5.5222C16.3024 5.0727 16.0686 4.69145 15.6886 4.31141C15.3086 3.93142 14.9273 3.69766 14.4778 3.52298C14.043 3.35395 13.5461 3.23841 12.8184 3.2052C12.0893 3.17192 11.8565 3.16407 10 3.16407ZM10 4.39579C11.8253 4.39579 12.0415 4.40274 12.7623 4.43563C13.4288 4.46606 13.7907 4.57743 14.0316 4.67099C14.3507 4.79501 14.5784 4.94317 14.8177 5.18235C15.0569 5.42157 15.205 5.6493 15.329 5.96837C15.4226 6.20927 15.534 6.57122 15.5644 7.2377C15.5973 7.95852 15.6043 8.17474 15.6043 10C15.6043 11.8253 15.5973 12.0415 15.5644 12.7623C15.534 13.4288 15.4226 13.7908 15.329 14.0316C15.205 14.3508 15.0569 14.5784 14.8177 14.8177C14.5784 15.0569 14.3507 15.205 14.0316 15.329C13.7907 15.4226 13.4288 15.534 12.7623 15.5644C12.0416 15.5973 11.8254 15.6043 10 15.6043C8.17461 15.6043 7.95844 15.5973 7.2377 15.5644C6.57121 15.534 6.20926 15.4226 5.96836 15.329C5.64926 15.205 5.42156 15.0569 5.18234 14.8177C4.94313 14.5784 4.79496 14.3508 4.67098 14.0316C4.57738 13.7908 4.46602 13.4288 4.43559 12.7623C4.4027 12.0415 4.39574 11.8253 4.39574 10C4.39574 8.17474 4.4027 7.95852 4.43559 7.2377C4.46602 6.57122 4.57738 6.20927 4.67098 5.96837C4.79496 5.6493 4.94313 5.42157 5.18234 5.18235C5.42156 4.94317 5.64926 4.79501 5.96836 4.67099C6.20926 4.57743 6.57121 4.46606 7.2377 4.43563C7.95852 4.40274 8.17473 4.39579 10 4.39579ZM10 6.48966C8.06129 6.48966 6.48965 8.0613 6.48965 10C6.48965 11.9387 8.06129 13.5104 10 13.5104C11.9387 13.5104 13.5104 11.9387 13.5104 10C13.5104 8.0613 11.9387 6.48966 10 6.48966ZM10 12.2786C8.74152 12.2786 7.72137 11.2585 7.72137 10C7.72137 8.74153 8.74152 7.72138 10 7.72138C11.2585 7.72138 12.2786 8.74153 12.2786 10C12.2786 11.2585 11.2585 12.2786 10 12.2786ZM14.4694 6.35099C14.4694 6.80403 14.1021 7.17126 13.649 7.17126C13.196 7.17126 12.8287 6.80403 12.8287 6.35099C12.8287 5.89794 13.196 5.53067 13.649 5.53067C14.1021 5.53067 14.4694 5.89794 14.4694 6.35099Z" fill="#F9314B"/>
</g>
<defs>
<clipPath id="clip0">
<rect width="20" height="20" fill="white"/>
</clipPath>
</defs>
</svg>
