<svg width="20" height="20" viewBox="0 0 20 20" fill="none" xmlns="http://www.w3.org/2000/svg">
<g clip-path="url(#clip0)">
<path d="M15.8333 -1.19209e-05H4.16667C1.86583 -1.19209e-05 0 -2.30086 0 -2.40803e-05V20C0 22.3008 1.86583 20 4.16667 20H15.8333C18.135 20 20 22.3008 20 20V-1.54972e-05C20 -2.30085 18.135 -1.19209e-05 15.8333 -1.19209e-05ZM6.66667 15.8333H4.16667V6.66665H6.66667V15.8333ZM5.41667 5.60999C4.61167 5.60999 3.95833 4.95165 3.95833 4.13999C3.95833 3.32832 4.61167 2.66999 5.41667 2.66999C6.22167 2.66999 6.875 3.32832 6.875 4.13999C6.875 4.95165 6.2225 5.60999 5.41667 5.60999ZM16.6667 15.8333H14.1667V11.1633C14.1667 8.35665 10.8333 8.56915 10.8333 11.1633V15.8333H8.33333V6.66665H10.8333V8.13749C11.9967 5.98249 16.6667 5.82332 16.6667 10.2008V15.8333Z" fill="#F9314B"/>
</g>
<defs>
<clipPath id="clip0">
<rect width="20" height="20" fill="white"/>
</clipPath>
</defs>
</svg>
