<svg width="20" height="20" viewBox="0 0 20 20" fill="none" xmlns="http://www.w3.org/2000/svg">
<g clip-path="url(#clip0)">
<path fill-rule="evenodd" clip-rule="evenodd" d="M17.5565 8.34465e-06C18.9051 8.34465e-06 20 -1.34859 20 0V20C20 21.3486 18.9051 20 17.5565 20H2.44352C1.09492 20 0 21.3486 0 20V8.34465e-06C0 -1.34859 1.09488 8.34465e-06 2.44352 8.34465e-06H17.5565ZM7.63746 16.5838C12.9476 16.5838 15.8511 12.1836 15.8511 8.37016C15.8511 8.24446 15.8511 8.11872 15.8451 7.99899C16.4078 7.59192 16.8987 7.08306 17.2879 6.50235C16.773 6.72985 16.2162 6.88552 15.6296 6.95735C16.2282 6.59813 16.6832 6.0354 16.8987 5.35891C16.342 5.68817 15.7254 5.92767 15.0668 6.05934C14.54 5.49661 13.7917 5.14938 12.9596 5.14938C11.3671 5.14938 10.074 6.44251 10.074 8.03493C10.074 8.26243 10.098 8.48392 10.1518 8.69345C7.75121 8.57372 5.62598 7.42431 4.20117 5.67622C3.9557 6.10126 3.81203 6.59813 3.81203 7.12497C3.81203 8.12474 4.3209 9.01075 5.09914 9.52559C4.62621 9.5136 4.1832 9.38192 3.79406 9.16638V9.20231C3.79406 10.6032 4.78785 11.7646 6.1109 12.034C5.87145 12.0998 5.61402 12.1358 5.35059 12.1358C5.165 12.1358 4.98543 12.1178 4.80582 12.0818C5.17102 13.2313 6.2366 14.0634 7.49977 14.0874C6.51199 14.8597 5.2668 15.3206 3.91383 15.3206C3.68035 15.3206 3.45285 15.3086 3.22535 15.2787C4.48852 16.1049 6.0091 16.5838 7.63746 16.5838Z" fill="#F9314B"/>
</g>
<defs>
<clipPath id="clip0">
<rect width="20" height="20" fill="white"/>
</clipPath>
</defs>
</svg>
